<?xml version="1.0" encoding="utf-8"?>
<svg width="16px" height="16px" viewBox="0 0 16 16" version="1.1" xmlns:xlink="http://www.w3.org/1999/xlink" xmlns="http://www.w3.org/2000/svg">
  <desc>Created with Lunacy</desc>
  <path d="M4 9L6 9L6 7L4 7L4 9ZM4 12L6 12L6 10L4 10L4 12ZM7 9L9 9L9 7L7 7L7 9ZM7 12L9 12L9 10L7 10L7 12ZM10 9L12 9L12 7L10 7L10 9ZM10 12L12 12L12 10L10 10L10 12ZM14 6C14 5.448 13.552 5 13 5L3 5C2.448 5 2 5.448 2 6L2 13C2 13.552 2.448 14 3 14L13 14C13.552 14 14 13.552 14 13L14 6ZM14 16L2 16C0.896 16 0 15.105 0 14L0 2C0 0.895 0.896 0 2 0L4 0L4 1C4 1.552 4.448 2 5 2C5.552 2 6 1.552 6 1L6 0L10 0L10 1C10 1.552 10.448 2 11 2C11.552 2 12 1.552 12 1L12 0L14 0C15.105 0 16 0.895 16 2L16 14C16 15.105 15.105 16 14 16L14 16Z" id="Calendar-Icon" fill="#D6B495" stroke="none" />
</svg>