<?xml version="1.0" encoding="utf-8"?>
<svg width="20px" height="20px" viewBox="0 0 20 20" version="1.1" xmlns:xlink="http://www.w3.org/1999/xlink" xmlns="http://www.w3.org/2000/svg">
  <desc>Created with Lunacy</desc>
  <path d="M12.3181 9.95248L19.4149 2.85565C20.0682 2.20238 20.0682 1.14322 19.4149 0.490047C18.7617 -0.163224 17.7026 -0.163224 17.0493 0.490047L9.9524 7.58696L2.85549 0.489953C2.20222 -0.163318 1.14315 -0.163318 0.489883 0.489953C-0.163294 1.14322 -0.163294 2.20238 0.489883 2.85556L7.5868 9.95238L0.489883 17.0493C-0.163294 17.7026 -0.163294 18.7617 0.489883 19.4149C1.14315 20.0682 2.20222 20.0682 2.85549 19.4149L9.9524 12.318L17.0493 19.4149C17.7025 20.0682 18.7617 20.0682 19.4149 19.4149C20.0682 18.7616 20.0682 17.7026 19.4149 17.0493L12.3181 9.95248Z" id="Path" fill="#4C4C51" stroke="none" />
</svg>