<?xml version="1.0" encoding="utf-8"?>
<svg width="28px" height="24px" viewBox="0 0 28 24" version="1.1" xmlns:xlink="http://www.w3.org/1999/xlink" xmlns="http://www.w3.org/2000/svg">
  <desc>Created with Lunacy</desc>
  <path d="M14.3261 0.00180055C13.7017 0.071426 13.2334 0.614026 13.2476 1.25026L13.2476 15.3742L11.0718 13.1654C10.8447 12.9229 10.5302 12.7837 10.2014 12.7813C9.7095 12.7861 9.2696 13.091 9.08749 13.5544C8.90301 14.0177 9.01654 14.5459 9.36893 14.894L13.4557 19.0236C13.4723 19.0572 13.4912 19.0884 13.5125 19.1196L13.6071 19.1964C13.8649 19.4605 14.2244 19.5902 14.5886 19.5542C14.9528 19.5157 15.2792 19.3141 15.4802 19.0044L19.5481 14.894C19.91 14.5987 20.0731 14.121 19.9691 13.6624C19.865 13.2014 19.5126 12.8437 19.0585 12.7381C18.6068 12.6324 18.1362 12.7981 17.8453 13.1654L15.6694 15.3742L15.6694 1.25026C15.6742 0.916537 15.5464 0.59722 15.3147 0.361933C15.0829 0.126647 14.7683 -0.00300091 14.4396 0.00180055C14.4018 -0.000600183 14.3639 -0.000600183 14.3261 0.00180055ZM0 14.5601L0 21.7038C0 22.714 0.858356 23.5601 1.88315 23.5601L26.1168 23.5601C27.1416 23.5601 28 22.714 28 21.7038L28 14.5601L25.5652 14.5601L25.5652 21.1601L2.43478 21.1601L2.43478 14.5601L0 14.5601Z" id="Shape" fill="#4C4C51" stroke="none" />
</svg>