<?xml version="1.0" encoding="utf-8"?>
<svg width="25px" height="25px" viewBox="0 0 25 25" version="1.1" xmlns:xlink="http://www.w3.org/1999/xlink" xmlns="http://www.w3.org/2000/svg">
  <desc>Created with Lunacy</desc>
  <g id="icons8-edit">
    <path d="M20.1875 0C19.1406 0 18.0938 0.40625 17.2813 1.21875L1.46875 17.0313L1.40625 17.3438L0.3125 22.8438L0 24.3125L1.46875 24L6.96875 22.9063L7.28125 22.8438L23.0938 7.03125C24.7188 5.40625 24.7188 2.84375 23.0938 1.21875C22.2813 0.40625 21.2344 0 20.1875 0ZM20.1875 1.90625C20.6914 1.90625 21.1992 2.13672 21.6875 2.625C22.6602 3.59766 22.6602 4.65234 21.6875 5.625L20.9688 6.3125L18 3.34375L18.6875 2.625C19.1758 2.13672 19.6836 1.90625 20.1875 1.90625ZM16.5938 4.75L19.5625 7.71875L7.46875 19.8125C6.8125 18.5313 5.78125 17.5 4.5 16.8438L16.5938 4.75ZM3.21875 18.4688C4.41797 18.9531 5.35938 19.8945 5.84375 21.0938L2.5625 21.75L3.21875 18.4688Z" id="Shape" fill="#FFFFFF" stroke="none" />
  </g>
</svg>