<?xml version="1.0" encoding="utf-8"?>
<svg width="26px" height="26px" viewBox="0 0 26 26" version="1.1" xmlns:xlink="http://www.w3.org/1999/xlink" xmlns="http://www.w3.org/2000/svg">
  <desc>Created with Lunacy</desc>
  <path d="M19.9801 0.000105057C19.3864 -0.00380094 18.8043 0.207136 18.3551 0.656355L17.3551 1.68761L23.9489 8.3126L24.9489 7.28136C25.8512 6.37901 25.859 4.91417 24.9489 4.00011L21.6364 0.687605C21.1793 0.230574 20.5739 0.00401106 19.9801 0.000105057ZM16.2301 2.59386L14.6676 4.09385L21.5426 10.9689L23.1364 9.5001L16.2301 2.59386ZM13.6676 5.1876L2.85513 15.9064C2.60513 16.0353 2.42544 16.2618 2.35513 16.5314L0.0426316 24.3751C-0.0628371 24.7189 0.0309126 25.0978 0.28482 25.3517C0.538726 25.6056 0.917632 25.6993 1.26138 25.5939L9.10513 23.2814C9.46841 23.2267 9.76919 22.9728 9.88638 22.6251L20.5426 12.0626L19.0739 10.5939L8.13638 21.5626L3.73013 22.8439L2.79263 21.9064L4.13638 17.3126L14.9801 6.5001L13.6676 5.1876ZM16.0426 7.59385L5.07388 18.5939L6.66763 18.9376L6.88638 20.4064L17.8864 9.4376L16.0426 7.59385Z" id="Shape" fill="#4C4C51" stroke="none" />
</svg>