<?xml version="1.0" encoding="utf-8"?>
<svg width="18px" height="18px" viewBox="0 0 17 12" fill="#7c7c82" version="1.1" xmlns:xlink="http://www.w3.org/1999/xlink" xmlns="http://www.w3.org/2000/svg">
  <desc>Created with Lunacy</desc>
  <defs>
    <path d="M8.25 0C4.5 0 1.2975 2.3325 0 5.625C1.2975 8.9175 4.5 11.25 8.25 11.25C12 11.25 15.2025 8.9175 16.5 5.625C15.2025 2.3325 12 0 8.25 0ZM8.25 9.375C6.18 9.375 4.5 7.695 4.5 5.625C4.5 3.555 6.18 1.875 8.25 1.875C10.32 1.875 12 3.555 12 5.625C12 7.695 10.32 9.375 8.25 9.375ZM8.25 3.375C7.005 3.375 6 4.38 6 5.625C6 6.87 7.005 7.875 8.25 7.875C9.495 7.875 10.5 6.87 10.5 5.625C10.5 4.38 9.495 3.375 8.25 3.375Z" id="path_1" />
    <clipPath id="mask_1">
      <use xlink:href="#path_1" />
    </clipPath>
  </defs>
  <path d="M8.25 0C4.5 0 1.2975 2.3325 0 5.625C1.2975 8.9175 4.5 11.25 8.25 11.25C12 11.25 15.2025 8.9175 16.5 5.625C15.2025 2.3325 12 0 8.25 0ZM8.25 9.375C6.18 9.375 4.5 7.695 4.5 5.625C4.5 3.555 6.18 1.875 8.25 1.875C10.32 1.875 12 3.555 12 5.625C12 7.695 10.32 9.375 8.25 9.375ZM8.25 3.375C7.005 3.375 6 4.38 6 5.625C6 6.87 7.005 7.875 8.25 7.875C9.495 7.875 10.5 6.87 10.5 5.625C10.5 4.38 9.495 3.375 8.25 3.375Z" id="Eye" fill="#DFE2E6" stroke="none" />
</svg>