<?xml version="1.0" encoding="utf-8"?>
<svg width="75px" height="67px" viewBox="0 0 75 67" version="1.1" xmlns:xlink="http://www.w3.org/1999/xlink" xmlns="http://www.w3.org/2000/svg">
  <desc>Created with Lunacy</desc>
  <path d="M53.9941 7.44444C61.4941 7.44444 67.5 13.4058 67.5 20.8503C67.5 28.2947 52.8809 44.6667 37.5 57.3164C22.1191 44.2886 7.5 27.9167 7.5 20.8503C7.5 13.4058 13.5059 7.44444 21.0059 7.44444C30 7.44444 37.5 18.6111 37.5 18.6111C37.5 18.6111 44.6191 7.44444 53.9941 7.44444L53.9941 7.44444ZM53.9941 0C47.2559 0 41.25 3.34419 37.5 8.56402C33.75 3.34419 27.7441 0 21.0059 0C9.375 0 0 9.30556 0 20.8503C0 37.2222 37.5 67 37.5 67C37.5 67 75 37.2222 75 20.8503C75 9.30556 65.625 0 53.9941 0Z" id="Shape" fill="#F3F3F3" fill-opacity="0.5019608" stroke="none" />
</svg>