<?xml version="1.0" encoding="utf-8"?>
<svg width="34px" height="30px" viewBox="0 0 34 30" version="1.1" xmlns:xlink="http://www.w3.org/1999/xlink" xmlns="http://www.w3.org/2000/svg">
  <desc>Created with Lunacy</desc>
  <path d="M24.4773 3.33333C27.8773 3.33333 30.6 6.0026 30.6 9.33594C30.6 12.6693 23.9727 20 17 25.6641C10.0273 19.8307 3.4 12.5 3.4 9.33594C3.4 6.0026 6.12266 3.33333 9.52266 3.33333C13.6 3.33333 17 8.33333 17 8.33333C17 8.33333 20.2273 3.33333 24.4773 3.33333L24.4773 3.33333ZM24.4773 0C21.4227 0 18.7 1.4974 17 3.83463C15.3 1.4974 12.5773 0 9.52266 0C4.25 0 0 4.16667 0 9.33594C0 16.6667 17 30 17 30C17 30 34 16.6667 34 9.33594C34 4.16667 29.75 0 24.4773 0Z" id="Shape" fill="#4C4C51" stroke="none" />
</svg>