<?xml version="1.0" encoding="utf-8"?>
<svg width="34px" height="34px" viewBox="0 0 34 34" version="1.1" xmlns:xlink="http://www.w3.org/1999/xlink" xmlns="http://www.w3.org/2000/svg">
  <desc>Created with Lunacy</desc>
  <path d="M17.2835 0C8.06553 0 0.566834 7.4987 0.566834 16.7167C0.566834 19.6327 1.32957 22.4978 2.77457 25.0183L0.0290673 33.2543C-0.0366661 33.452 0.0109339 33.6691 0.153167 33.8209C0.261967 33.9371 0.412701 34 0.566834 34C0.615001 34 0.663167 33.9938 0.710767 33.9813L9.70207 31.6155C12.0379 32.8055 14.6542 33.4333 17.2835 33.4333C26.5015 33.4333 34.0002 25.9346 34.0002 16.7167C34.0002 7.4987 26.5015 0 17.2835 0ZM9.6335 19.2667C8.38343 19.2667 7.36683 18.2501 7.36683 17C7.36683 15.7499 8.38343 14.7333 9.6335 14.7333C10.8836 14.7333 11.9002 15.7499 11.9002 17C11.9002 18.2501 10.8836 19.2667 9.6335 19.2667ZM17.0002 19.2667C15.7501 19.2667 14.7335 18.2501 14.7335 17C14.7335 15.7499 15.7501 14.7333 17.0002 14.7333C18.2502 14.7333 19.2668 15.7499 19.2668 17C19.2668 18.2501 18.2502 19.2667 17.0002 19.2667ZM24.3668 19.2667C23.1168 19.2667 22.1002 18.2501 22.1002 17C22.1002 15.7499 23.1168 14.7333 24.3668 14.7333C25.6169 14.7333 26.6335 15.7499 26.6335 17C26.6335 18.2501 25.6169 19.2667 24.3668 19.2667Z" id="Shape" fill="#4C4C51" stroke="none" />
</svg>