<?xml version="1.0" encoding="utf-8"?>
<svg width="36px" height="19px" viewBox="0 0 36 19" version="1.1" xmlns:xlink="http://www.w3.org/1999/xlink" xmlns="http://www.w3.org/2000/svg">
  <desc>Created with Lunacy</desc>
  <path d="M4 3.2112C4 2.54219 4.5116 2 5.14286 2C5.77405 2 6.28565 2.54226 6.28571 3.2112L6.28571 15.6459C6.28571 16.315 5.77405 16.8571 5.14286 16.8571C4.5116 16.8571 4 16.315 4 15.6459L4 3.2112ZM30.8571 2C30.2259 2 29.7143 2.54219 29.7143 3.2112L29.7143 15.6459C29.7143 16.315 30.2259 16.8571 30.8571 16.8571C31.4884 16.8571 32 16.315 32 15.6459L32 3.2112C32 2.54226 31.4884 2 30.8571 2ZM0 5.21537C0 4.54406 0.511597 4 1.14286 4C1.77405 4 2.28565 4.54406 2.28571 5.21537L2.28571 13.6418C2.28571 14.3131 1.77412 14.8571 1.14286 14.8571C0.511597 14.8571 0 14.313 0 13.6418L0 5.21537ZM33.7143 5.21537C33.7143 4.54406 34.226 4 34.8571 4C35.4884 4 36 4.54406 36 5.21537L36 13.6417C36 14.313 35.4884 14.8571 34.8571 14.8571C34.2259 14.8571 33.7143 14.313 33.7143 13.6418L33.7143 5.21537Z" id="Combined-Shape" fill="#FFFFFF" fill-rule="evenodd" stroke="none" />
</svg>