<svg width="395" height="259" viewBox="0 0 395 259" fill="none" xmlns="http://www.w3.org/2000/svg">
<path fill-rule="evenodd" clip-rule="evenodd" d="M231.137 204C270.702 189.797 299 151.953 299 107.5C299 50.8908 253.109 5 196.5 5C139.891 5 94 50.8908 94 107.5C94 151.953 122.298 189.797 161.863 204H10C7.23858 204 5 206.239 5 209V249C5 251.761 7.23858 254 10 254H385C387.761 254 390 251.761 390 249V209C390 206.239 387.761 204 385 204H231.137Z" fill="white"/>
<path fill-rule="evenodd" clip-rule="evenodd" d="M231.137 204H385C387.761 204 390 206.239 390 209V249C390 251.761 387.761 254 385 254H10C7.23858 254 5 251.761 5 249V209C5 206.239 7.23858 204 10 204H161.863C157.874 202.568 153.999 200.895 150.256 199C116.879 182.098 94 147.471 94 107.5C94 50.8908 139.891 5 196.5 5C253.109 5 299 50.8908 299 107.5C299 147.471 276.121 182.098 242.744 199C239.001 200.895 235.126 202.568 231.137 204ZM252.953 199H385C390.523 199 395 203.477 395 209V249C395 254.523 390.523 259 385 259H10C4.47716 259 0 254.523 0 249V209C0 203.477 4.47716 199 10 199H140.047C109.415 180.061 89 146.169 89 107.5C89 48.1294 137.129 0 196.5 0C255.871 0 304 48.1294 304 107.5C304 146.169 283.585 180.061 252.953 199Z" fill="#DBDBDB"/>
</svg>
