<svg width="66" height="49" viewBox="0 0 66 49" fill="none" xmlns="http://www.w3.org/2000/svg">
<path d="M25.2349 37.5225V49H12.5735H0V31.8721C0 22.7489 1.993 15.5976 5.979 10.418C10.0236 5.23844 16.2371 1.76577 24.6194 0V9.09369C19.2852 10.7417 15.6802 13.1844 13.8045 16.4216C12.5735 18.6583 11.7528 21.8661 11.3425 26.045H17.6732H25.2349V37.5225ZM66 37.5225V49H53.3386H40.7651V31.8721C40.7651 22.7489 42.7581 15.5976 46.7441 10.418C50.7887 5.23844 57.0022 1.76577 65.3845 0V9.09369C60.0503 10.7417 56.4453 13.1844 54.5696 16.4216C53.3386 18.6583 52.5179 21.8661 52.1076 26.045H58.4383H66V37.5225Z" fill="#C79C74"/>
</svg>
