<?xml version="1.0" encoding="utf-8"?>
<svg width="29px" height="27px" viewBox="0 0 29 27" version="1.1" xmlns:xlink="http://www.w3.org/1999/xlink" xmlns="http://www.w3.org/2000/svg">
  <desc>Created with Lunacy</desc>
  <path d="M28.6927 8.96064L20.4069 0.320707C20.2019 0.106922 19.9592 0 19.6787 0C19.3982 0 19.1554 0.106922 18.9505 0.320707C18.7455 0.53461 18.6429 0.787759 18.6429 1.08021L18.6429 5.40018L15.0179 5.40018C7.32523 5.40018 2.60544 7.66711 0.857427 12.2009C0.28579 13.7082 0 15.5815 0 17.8203C0 19.6876 0.685114 22.2245 2.05523 25.4308C2.08754 25.5097 2.14399 25.6444 2.22505 25.8356C2.30605 26.0267 2.37877 26.1955 2.4435 26.3419C2.50846 26.4879 2.57863 26.6117 2.65407 26.7128C2.78342 26.9041 2.93454 27 3.10719 27C3.26902 27 3.39581 26.9438 3.48758 26.8313C3.57912 26.7189 3.62498 26.5781 3.62498 26.4098C3.62498 26.3082 3.61149 26.1594 3.58445 25.9624C3.55747 25.7654 3.54392 25.6335 3.54392 25.5659C3.48991 24.8012 3.46293 24.1088 3.46293 23.4905C3.46293 22.3543 3.55747 21.3362 3.74611 20.4362C3.93503 19.5361 4.19662 18.7572 4.53115 18.099C4.86563 17.4406 5.29704 16.8729 5.82582 16.3947C6.35438 15.9165 6.92341 15.5257 7.53297 15.2219C8.14264 14.9181 8.86006 14.679 9.68541 14.5047C10.5107 14.3303 11.3414 14.2093 12.1776 14.1418C13.0138 14.0742 13.9605 14.0406 15.0179 14.0406L18.6429 14.0406L18.6429 18.3607C18.6429 18.6532 18.7453 18.9064 18.9501 19.12C19.1553 19.3336 19.398 19.4406 19.6783 19.4406C19.9588 19.4406 20.2016 19.3336 20.4069 19.12L28.6926 10.4798C28.8976 10.266 29 10.013 29 9.7205C28.9999 9.42804 28.8976 9.17483 28.6927 8.96064Z" id="Path" fill="#4C4C51" stroke="none" />
</svg>