<?xml version="1.0" encoding="utf-8"?>
<svg width="38px" height="38px" viewBox="0 0 38 38" version="1.1" xmlns:xlink="http://www.w3.org/1999/xlink" xmlns="http://www.w3.org/2000/svg">
  <desc>Created with Lunacy</desc>
  <path d="M19.0119 0L12.2219 6.78997C11.8229 7.17116 11.6591 7.73699 11.7961 8.27304C11.9331 8.80611 12.347 9.22602 12.8801 9.36897C13.4132 9.51191 13.982 9.35407 14.3661 8.95799L17.4871 5.83699L17.4871 17.4633L5.81317 17.4633L8.93417 14.3423C9.38683 13.9045 9.52383 13.2375 9.27962 12.6567C9.0384 12.079 8.46661 11.7067 7.83824 11.7216C7.43919 11.7365 7.06395 11.9092 6.78997 12.1981L0 18.9881L6.78997 25.7781C7.15627 26.2337 7.7489 26.4392 8.31771 26.3082C8.8895 26.1771 9.33323 25.7334 9.46426 25.1616C9.5953 24.5928 9.38981 24.0002 8.93417 23.6339L5.81317 20.5129L17.4871 20.5129L17.4871 32.163L14.3661 29.042C14.0803 28.7412 13.6842 28.5685 13.2702 28.5655C12.6508 28.5715 12.0969 28.9497 11.8676 29.5245C11.6353 30.0992 11.7782 30.7544 12.2219 31.1862L17.9398 36.9041L19.0119 38L20.084 36.9041L25.8019 31.1862C26.2575 30.8199 26.463 30.2273 26.332 29.6585C26.2009 29.0867 25.7572 28.6429 25.1854 28.5119C24.6166 28.3809 24.024 28.5864 23.6577 29.042L20.5367 32.163L20.5367 20.5129L32.163 20.5129L29.042 23.6339C28.5864 24.0002 28.3809 24.5928 28.5119 25.1616C28.6429 25.7334 29.0867 26.1771 29.6585 26.3082C30.2273 26.4392 30.8199 26.2337 31.1862 25.7781L36.9041 20.0602L38 18.9881L36.9041 17.916L31.1862 12.1981C30.9003 11.8973 30.5042 11.7246 30.0903 11.7216C30.0426 11.7187 29.995 11.7187 29.9473 11.7216C29.3547 11.7782 28.8484 12.1773 28.6549 12.7401C28.4583 13.306 28.6102 13.9313 29.042 14.3423L32.163 17.4633L20.5367 17.4633L20.5367 5.83699L23.6577 8.95799C24.0418 9.35407 24.6107 9.51191 25.1437 9.36897C25.6768 9.22602 26.0908 8.80611 26.2277 8.27304C26.3647 7.73699 26.2009 7.17116 25.8019 6.78997L19.0119 0Z" id="Path" fill="#4C4C51" fill-opacity="0.5" stroke="none" />
</svg>