<?xml version="1.0" encoding="utf-8"?>
<svg width="191px" height="45px" viewBox="0 0 191 45" version="1.1" xmlns:xlink="http://www.w3.org/1999/xlink" xmlns="http://www.w3.org/2000/svg">
  <desc>Created with Lunacy</desc>
  <path d="M123.665 9.21611C123.581 9.38659 123.54 9.55822 123.415 9.68543C123.248 9.98428 123.124 10.2843 123.04 10.6682C122.999 10.882 122.79 10.9671 122.582 11.0095C122.457 11.0095 122.333 11.0525 122.207 11.0095C122.165 11.0095 122.082 11.0095 122.082 10.9671C121.957 10.796 121.916 10.6252 121.833 10.4548C121.791 10.3694 121.833 10.2843 121.874 10.2413C121.957 10.0275 122.041 9.77168 121.999 9.51495C121.999 9.42957 121.999 9.30149 122.041 9.25909C122.207 8.96024 122.291 8.53332 122.416 8.23418C122.541 8.02043 122.832 7.89207 123.124 7.93563C123.207 7.97745 123.332 8.02043 123.457 8.02043C123.581 8.02043 123.665 8.14909 123.707 8.36255L123.707 8.44793C123.748 8.57514 123.748 8.7038 123.79 8.83187L123.665 9.21611ZM113.902 19.0809C113.86 19.2514 113.819 19.3368 113.736 19.4649C113.568 19.5935 113.361 19.7207 113.194 19.5935C113.069 19.5502 112.945 19.4649 112.861 19.3798C112.777 19.2944 112.694 19.2084 112.653 19.123C112.57 18.9525 112.486 18.8245 112.445 18.6104C112.445 18.525 112.403 18.4402 112.403 18.3549C112.32 18.1411 112.32 17.8423 112.32 17.5855C112.32 17.3729 112.361 17.1595 112.486 16.9457C112.528 16.8174 112.611 16.7323 112.694 16.689C112.777 16.6469 112.819 16.6469 112.902 16.6469C113.028 16.6036 113.194 16.6469 113.319 16.7323C113.485 16.8603 113.652 17.0729 113.694 17.2446C113.777 17.3729 113.819 17.5434 113.86 17.7139C113.86 17.7993 113.902 17.8423 113.902 17.9709L113.902 18.4832C113.944 18.7391 113.944 18.9096 113.902 19.0809L113.902 19.0809ZM63.2505 16.6036C63.1664 16.9025 63.0834 17.1162 63.0002 17.2446C62.8339 17.5434 62.8339 17.5434 62.5833 17.3729C62.4593 17.287 62.3341 17.2016 62.2089 17.0729C62.0837 16.9457 61.709 16.2197 61.6682 16.1343C61.5009 15.622 61.4598 14.7254 61.5841 14.255C61.7509 13.8286 61.8764 13.6573 62.1678 13.3581C62.4593 13.2298 62.7088 13.1879 62.9169 13.3581C63.0834 13.4868 63.2505 13.5286 63.3746 13.8286C63.4998 14.0845 63.4998 14.255 63.4998 14.5968C63.3746 15.3228 63.3335 16.348 63.2505 16.6036L63.2505 16.6036ZM181.251 13.5286C181.334 13.2298 181.417 12.9739 181.459 12.7183C181.5 12.4616 181.583 12.1627 181.625 11.8639C181.666 11.3946 181.75 10.9241 181.917 10.4118C182.042 10.0705 182.083 9.77168 182.125 9.42957C182.125 9.25909 182.166 9.08774 182.208 8.91726C182.333 8.66139 182.374 8.40466 182.5 8.14909C182.625 7.76399 182.625 7.76399 182.666 7.33764L182.666 7.0388C182.666 6.91043 182.708 6.82505 182.749 6.69697C182.833 6.48293 182.916 6.26947 182.957 6.01361C182.999 5.84226 183.04 5.67178 183.165 5.41591C183.333 5.03082 183.54 4.73197 183.707 4.39101C183.79 4.30591 183.874 4.26264 183.957 4.21966C184.082 4.13428 184.29 4.26264 184.331 4.39101C184.415 4.60476 184.456 4.90361 184.539 5.15947C184.623 5.58639 184.665 5.9288 184.665 6.44111L184.665 6.48293C184.665 6.82505 184.623 7.08091 184.539 7.33764C184.539 7.37976 184.499 7.42274 184.499 7.50813C184.415 7.76399 184.331 8.06284 184.331 8.36255L184.331 8.66139C184.29 8.74678 184.29 8.87399 184.248 9.00264C184.165 9.17399 184.082 9.38659 183.999 9.64332C183.957 9.77168 183.916 9.94245 183.832 10.0705C183.707 10.3264 183.665 10.5831 183.54 10.8387C183.124 11.6072 182.749 12.3762 182.374 13.0593C182.333 13.1879 182.208 13.3581 182.166 13.5286L181.917 13.9561C181.833 14.1275 181.708 14.2125 181.625 14.3403C181.542 14.4263 181.459 14.4263 181.334 14.2979C181.291 14.2125 181.291 14.1275 181.251 13.9991C181.208 13.8286 181.166 13.7002 181.251 13.5286L181.251 13.5286ZM190.495 22.198C190.412 22.0697 190.203 21.9413 190.078 21.9846C189.87 21.9413 189.829 22.0275 189.746 22.0697C189.495 22.198 189.329 22.4118 189.204 22.6252C189.12 22.7957 188.995 22.9241 188.87 23.0946C188.829 23.1378 188.787 23.2232 188.746 23.3086C188.621 23.5221 188.496 23.7355 188.413 23.949C188.287 24.1198 188.246 24.3332 188.121 24.5467L187.747 25.3154C187.664 25.4435 187.621 25.614 187.496 25.7848C187.247 26.0836 187.08 26.4254 186.872 26.7243C186.581 27.2799 186.289 27.7062 186.039 28.1764C185.998 28.2188 185.956 28.2618 185.956 28.3469C185.831 28.4755 185.707 28.689 185.622 28.7744C185.248 29.1162 185.122 29.5855 184.665 29.8414C184.499 29.9268 184.04 30.2686 183.832 30.3119L183.707 30.3119C183.582 30.3973 183.457 30.3537 183.291 30.3119C182.999 30.2686 182.749 30.1402 182.542 29.9698C182.5 29.9268 182.457 29.8844 182.416 29.8844C182.208 29.6279 181.957 29.3721 181.708 29.1162C181.666 29.03 181.666 28.9449 181.625 28.8598C181.583 28.7311 181.583 28.689 181.542 28.5609L181.291 27.7062C181.291 27.6641 181.251 27.5357 181.251 27.4074C181.208 27.1515 181.125 26.8529 181.042 26.5959L181.042 26.2971C181.042 25.9982 181 25.5289 180.959 25.2719C180.959 25.1447 180.959 24.9733 180.917 24.8025C180.917 24.7175 180.917 24.6321 180.875 24.5467C180.792 24.2049 180.792 24.2049 180.834 23.949C180.834 23.8627 180.875 23.7776 180.834 23.6504C180.834 23.5221 180.792 23.3934 180.792 23.265L180.792 22.7957C180.834 22.5393 180.917 22.2401 180.792 21.9413L180.792 21.0448L180.792 20.7459C180.834 20.5322 180.917 20.3184 180.959 20.0628C181 19.8924 181 19.764 181 19.6356C181 19.5073 180.959 19.3798 180.959 19.2944C180.917 18.9096 181.042 18.3549 181.042 17.9709C181 17.8847 181 17.7993 181 17.6718C181 17.415 181.042 17.2016 181.166 16.9878C181.291 16.9025 181.334 16.7741 181.5 16.6469C181.583 16.5618 181.666 16.5182 181.708 16.4334C181.833 16.3901 181.917 16.3048 181.957 16.1764C182.166 15.9629 182.333 15.75 182.542 15.5787C182.666 15.4936 182.791 15.365 182.916 15.2377C182.999 15.1515 183.124 15.0243 183.208 14.8526C183.457 14.4263 183.748 13.9991 184.04 13.6151L184.165 13.4868C184.207 13.3581 184.29 13.2727 184.331 13.1447C184.373 13.0175 184.456 12.8458 184.539 12.7604L184.79 12.4616C184.831 12.4186 184.873 12.2911 184.915 12.1627L185.04 11.6934C185.122 11.5218 185.248 11.4364 185.331 11.2659L185.498 11.0095C185.622 10.5401 185.622 10.5401 185.707 10.3694C185.831 10.198 185.914 10.0275 185.956 9.8989C185.998 9.77168 186.081 9.60034 186.122 9.42957C186.33 8.74678 186.289 8.74678 186.496 8.36255C186.581 8.1912 186.622 8.02043 186.664 7.80697C186.705 7.42274 186.705 7.0388 186.83 6.69697L186.83 6.48293C186.872 6.09899 186.872 5.71476 186.83 5.32966L186.83 4.64659C186.872 4.51851 186.872 4.34774 186.83 4.17726C186.747 3.92082 186.705 3.70793 186.705 3.49447C186.705 3.19563 186.622 2.98188 186.496 2.68303C186.413 2.46928 186.33 2.29793 186.205 2.08505C186.039 1.91399 185.873 1.74322 185.707 1.65813C185.581 1.48649 185.373 1.31601 185.206 1.18764C184.998 1.10226 184.831 0.975048 184.623 0.931779L184.04 0.547548C183.957 0.504856 183.874 0.419472 183.748 0.376202C183.499 0.334087 183.249 0.248991 182.999 0.120625L182.666 0.0352407C182.457 -0.0498554 182.25 0.0352407 182.042 0.120625C181.833 0.205722 181.666 0.334087 181.459 0.419472C181.291 0.632933 181.042 0.846683 180.875 1.01716C180.584 1.27389 180.292 1.57274 180 1.78649C179.917 1.91399 179.792 2.04207 179.709 2.21284C179.501 2.4263 179.292 2.72514 179.085 3.02399C179.043 3.19563 178.877 3.40793 178.752 3.57957C178.627 3.75005 178.501 3.92082 178.377 4.13428C178.127 4.51851 177.878 4.86034 177.669 5.24428L177.211 6.14111C177.127 6.31274 177.086 6.44111 177.044 6.61159C176.961 6.82505 176.878 7.0388 176.795 7.25226L176.544 7.85024C176.461 8.02043 176.42 8.1912 176.336 8.36255L176.087 8.96024C176.045 9.17399 175.961 9.38659 175.921 9.64332C175.878 9.72841 175.878 9.8138 175.836 9.94245C175.836 10.0705 175.753 10.2413 175.753 10.4118C175.629 10.6682 175.504 10.9671 175.462 11.2229C175.42 11.3946 175.378 11.5218 175.337 11.6934L175.212 12.3762C175.17 12.7183 175.129 13.0175 175.046 13.3581C175.046 13.5719 175.004 13.8286 174.962 14.0412C174.962 14.1696 174.921 14.3403 174.879 14.5114C174.838 14.9807 174.753 15.4082 174.67 15.8775C174.629 15.9629 174.629 16.0913 174.587 16.2197C174.587 16.2638 174.585 16.3059 174.584 16.3486C174.406 16.5055 174.292 16.6682 174.216 16.9025C174.174 17.0729 174.09 17.2446 174.048 17.415C174.007 17.6718 173.923 17.9276 173.882 18.1411C173.84 18.2698 173.84 18.397 173.757 18.4832L173.257 20.0196C173.174 20.2333 173.049 20.4047 172.966 20.6173C172.757 21.0024 172.716 21.5571 172.508 21.9413C172.425 22.2401 172.342 22.4539 172.3 22.6674C172.175 22.9241 172.133 23.1378 172.049 23.3504L171.8 24.2481C171.758 24.4186 171.675 24.5891 171.592 24.7607C171.383 25.1447 171.175 25.5289 171.009 25.9131C170.8 26.255 170.634 26.6389 170.384 27.0231C170.384 27.0664 170.384 27.1515 170.342 27.1936C170.218 27.4074 170.051 27.5787 169.926 27.7925L169.468 28.2618C169.426 28.305 169.218 28.4323 168.969 28.1764C168.801 28.005 168.51 27.7062 168.51 26.938C168.469 26.7675 168.469 26.5538 168.427 26.3825C168.427 26.2117 168.385 26.0412 168.385 25.8277L168.385 24.7175C168.385 24.3756 168.344 23.9914 168.344 23.6504C168.302 23.4367 168.302 23.265 168.261 23.0946C168.261 23.0092 168.218 22.9665 168.218 22.8811C168.218 22.839 168.177 22.7957 168.177 22.7106C168.094 22.3688 168.052 21.9846 168.094 21.6425C168.135 21.0877 168.094 20.5322 168.01 19.9777C167.969 19.8061 167.927 19.5935 167.927 19.4222C167.844 18.9947 167.803 18.5686 167.761 18.1411C167.761 18.0127 167.803 17.8847 167.803 17.7569C167.803 17.458 167.844 17.1595 167.927 16.8603C167.969 16.8174 167.969 16.7323 167.969 16.689C168.01 16.2197 168.094 15.7071 168.135 15.1094L168.135 14.8526C168.094 14.5538 168.094 14.255 168.094 13.9137C168.094 13.7002 168.01 13.4435 167.803 13.2727C167.635 13.1025 167.553 13.0175 167.386 12.9309L167.052 12.8037C166.886 12.7183 166.719 12.6753 166.553 12.6753L166.178 12.6753C165.929 12.6753 165.72 12.7604 165.553 12.9739C165.262 13.2727 164.971 13.5719 164.762 13.9561C164.638 14.1275 164.554 14.255 164.47 14.4263C164.262 14.7254 164.096 15.0661 163.93 15.365C163.888 15.4936 163.847 15.622 163.805 15.7071L163.555 16.4334C163.513 16.5182 163.471 16.6469 163.471 16.7741C163.43 17.0311 163.347 17.2446 163.263 17.5004C163.18 17.7569 163.097 18.056 163.055 18.3549L162.805 19.4649C162.722 19.8061 162.722 20.1912 162.639 20.5322C162.597 20.6605 162.597 20.7889 162.556 20.9164C162.473 21.1299 162.431 21.3866 162.389 21.6003C162.305 21.8992 162.18 22.198 162.056 22.4969L161.806 22.9665C161.556 23.2232 161.306 23.5221 161.097 23.8209L159.974 25.23C159.682 25.5289 159.391 25.8707 159.14 26.2117C158.974 26.3825 158.808 26.5538 158.599 26.7243C158.474 26.8094 158.349 26.938 158.183 27.0231L157.849 27.1515C157.725 27.1082 157.641 27.0231 157.6 26.8948C157.517 26.8094 157.434 26.7243 157.434 26.5959C157.392 26.4687 157.35 26.34 157.35 26.2117C157.266 25.7848 157.309 25.3584 157.309 24.9312L157.309 24.7607C157.392 24.3756 157.392 24.0344 157.392 23.6504C157.392 23.3504 157.434 23.0516 157.517 22.7527C157.6 22.3264 157.6 22.3264 157.517 21.8141L157.517 21.472C157.558 21.0877 157.6 20.7459 157.6 20.3617C157.641 20.1061 157.725 19.8924 157.808 19.6356C157.891 19.5073 157.975 19.3368 158.017 19.1663C158.183 18.5686 158.308 17.9709 158.474 17.3729L158.599 17.0311C158.766 16.7741 158.974 16.5182 159.099 16.2618C159.223 16.0059 159.266 15.9629 159.432 15.8354C159.557 15.7071 159.682 15.5787 159.849 15.4503C159.974 15.3228 160.099 15.1948 160.182 15.0661C160.265 14.9389 160.348 14.8526 160.39 14.7673C160.556 14.5538 160.64 14.4684 160.973 14.3403L161.306 14.2125C161.597 14.0412 161.806 13.8707 162.056 13.6573C162.139 13.5719 162.222 13.4868 162.264 13.4014C162.389 13.1879 162.513 12.9739 162.68 12.7604C162.764 12.6753 162.805 12.59 162.888 12.4616C163.013 12.2481 162.971 11.9923 162.888 11.7785C162.805 11.6072 162.68 11.48 162.556 11.3513C162.264 11.1378 161.973 10.9241 161.639 10.7536C161.389 10.5831 161.14 10.4118 160.848 10.3264C160.682 10.2843 160.515 10.198 160.348 10.1559C160.182 10.0705 159.974 10.0705 159.807 10.0275C159.557 9.98428 159.349 10.0275 159.099 10.1559C158.849 10.2843 158.558 10.3694 158.308 10.5401C158.058 10.7106 157.766 10.796 157.517 10.9671L157.183 11.0957C156.85 11.2659 156.559 11.4364 156.267 11.6934C155.852 12.0344 155.435 12.4186 155.101 12.8037L154.227 13.7856C154.144 13.8707 154.061 13.9561 154.019 14.0412C153.769 14.3403 153.602 14.6822 153.352 14.9389C153.269 15.0243 153.227 15.1515 153.144 15.2377C153.144 15.2799 153.102 15.365 153.061 15.4082C152.992 15.6557 152.865 15.8735 152.729 16.0867C152.628 16.0529 152.513 16.0405 152.438 16.0913C152.272 16.0913 152.188 16.2197 152.147 16.3048C151.938 16.4752 151.813 16.6469 151.73 16.9025C151.689 17.0729 151.605 17.2446 151.564 17.415C151.521 17.6718 151.439 17.9276 151.397 18.1411C151.355 18.2698 151.355 18.397 151.272 18.4832L150.772 20.0196C150.689 20.2333 150.564 20.4047 150.481 20.6173C150.273 21.0024 150.231 21.5571 150.022 21.9413C149.939 22.2401 149.856 22.4539 149.815 22.6674C149.69 22.9241 149.648 23.1378 149.565 23.3504L149.315 24.2481C149.273 24.4186 149.19 24.5891 149.107 24.7607C148.899 25.1447 148.69 25.5289 148.524 25.9131C148.316 26.255 148.148 26.6389 147.899 27.0231C147.899 27.0664 147.899 27.1515 147.857 27.1936C147.733 27.4074 147.566 27.5787 147.441 27.7925C147.357 27.8775 147.025 28.305 146.566 27.7062C146.233 27.1082 145.859 26.5538 145.609 25.8707C145.525 25.6573 145.4 25.4002 145.442 25.1447C145.442 24.9312 145.317 24.8025 145.317 24.5467C145.317 24.2902 145.276 23.9914 145.192 23.7355C145.109 23.265 145.068 22.839 145.151 22.3688C145.151 22.1548 145.109 21.8559 145.151 21.5571C145.192 21.429 145.151 21.3015 145.151 21.0877C145.109 20.9594 145.109 20.8743 145.109 20.7038C145.276 20.4047 145.276 20.0196 145.317 19.6356L145.442 18.9096C145.442 18.8245 145.483 18.7821 145.442 18.6958C145.4 18.3116 145.442 18.0127 145.525 17.7569C145.567 17.5004 145.567 17.33 145.567 17.0729L145.567 16.9457C145.525 16.4752 145.483 15.9629 145.483 15.365C145.483 15.2377 145.442 15.1094 145.359 14.9389C145.317 14.8956 145.276 14.7254 145.276 14.6822C145.317 14.3403 145.192 13.9561 145.151 13.6573C145.109 13.2727 145.026 13.0593 144.776 12.8458C144.651 12.7183 144.568 12.6321 144.485 12.5046C144.359 12.2481 144.151 12.0776 143.86 11.9493C143.652 11.8639 143.402 11.7355 143.152 11.6072C142.986 11.4364 142.818 11.3946 142.569 11.3083C142.444 11.3083 142.319 11.3083 142.235 11.4364C141.861 11.6934 141.652 12.0776 141.444 12.5046C141.32 12.8037 141.278 13.1025 140.986 13.3581C140.945 13.4014 140.945 13.5286 140.903 13.5719C140.903 13.7002 140.903 13.8286 140.861 13.9137C140.778 14.2979 140.612 14.64 140.529 14.9807C140.445 15.3228 140.445 15.75 140.32 16.0913C140.195 16.5182 140.153 16.9025 140.07 17.33C140.029 17.8847 139.862 18.4402 139.738 18.9096C139.73 18.9459 139.725 18.9817 139.718 19.0177C139.574 19.1675 139.436 19.3215 139.364 19.5073L139.239 19.9777C139.198 20.2333 139.115 20.49 139.072 20.6605L138.947 21.0024L138.364 22.2401C138.156 22.6252 137.99 22.9665 137.782 23.3086C137.656 23.5221 137.532 23.7355 137.448 23.949C137.324 24.1198 137.282 24.3332 137.157 24.5467L136.782 25.3154C136.699 25.4435 136.657 25.614 136.532 25.7848C136.282 26.0836 136.199 26.4254 135.908 26.7243C135.658 26.981 135.45 27.2799 135.325 27.4074C135.2 27.4933 135.116 27.5787 135.033 27.6641C134.742 27.9629 134.367 28.1764 133.993 28.305C133.825 28.3469 133.7 28.3469 133.576 28.305C133.409 28.1764 133.243 28.005 133.159 27.8346C133.159 27.7925 133.117 27.6641 133.117 27.6211L133.076 27.4506C133.034 26.981 132.993 26.5959 132.826 26.2117C132.742 25.9982 132.742 25.7848 132.742 25.5719C132.742 25.3154 132.742 25.1447 132.702 24.9312C132.618 24.6321 132.618 24.4186 132.618 24.1198C132.702 23.8627 132.702 23.6504 132.742 23.4788C132.785 23.3086 132.826 23.18 132.868 23.0946C133.034 22.7106 133.076 22.2401 133.076 21.8141L133.076 21.6003C133.076 21.472 133.034 21.3015 133.076 21.1731L133.076 20.1479C133.034 19.9345 133.076 19.7207 133.117 19.5073L133.243 18.6958C133.367 18.397 133.367 18.1411 133.367 17.8423C133.367 17.415 133.409 17.0311 133.409 16.5618C133.409 16.3048 133.409 16.0489 133.451 15.75C133.493 15.4082 133.534 15.0661 133.534 14.6822C133.576 14.3403 133.7 13.9991 133.742 13.6573C133.784 13.4435 133.7 13.3581 133.742 13.1879C133.742 13.1025 133.7 12.9739 133.659 12.8888C133.617 12.6753 133.493 12.4186 133.409 12.2057C133.367 12.1195 133.326 12.0344 133.285 12.0344C133.034 12.1627 132.742 11.9069 132.493 11.6934C132.41 11.6072 132.326 11.6501 132.285 11.6072C132.035 11.48 131.785 11.4364 131.577 11.2659C131.286 11.0095 130.952 10.9241 130.62 10.796C130.203 10.6682 129.703 10.6252 129.245 10.5831C129.037 10.5401 128.787 10.5401 128.495 10.5401C128.246 10.5401 127.621 10.4548 127.371 10.4966C127.038 10.5401 126.704 10.5401 126.372 10.5831C125.83 10.5831 125.789 10.5401 125.538 10.4966C125.498 10.4966 125.414 10.4118 125.414 10.3694C125.498 10.0275 125.498 9.68543 125.664 9.34447C125.747 9.08774 125.789 8.78889 125.789 8.53332C125.789 8.10582 125.622 7.85024 125.455 7.50813C125.33 7.29438 125.039 7.29438 124.873 7.20928L124.331 7.08091C124.039 7.0388 123.748 6.95226 123.415 6.95226C123.04 6.86716 122.707 6.86716 122.416 6.82505L122.248 6.82505C121.874 6.69697 121.416 6.91043 121.042 6.78207C120.874 6.78207 120.708 6.82505 120.583 6.86716C120.459 6.86716 120.375 6.86716 120.291 6.91043C119.917 7.12389 119.583 7.25226 119.168 7.37976C118.834 7.55139 118.543 7.85024 118.293 8.1912C118.209 8.36255 118.126 8.57514 117.96 8.74678C117.877 8.96024 117.835 9.21611 117.709 9.38659C117.585 9.64332 117.709 9.85707 117.709 10.1126C117.709 10.198 117.669 10.3264 117.669 10.3694C117.752 10.9241 117.918 11.4364 118.293 11.7785C118.46 11.9069 118.585 12.0776 118.709 12.2057C118.917 12.4186 119.085 12.6321 119.376 12.7183C119.668 12.8037 119.876 12.9309 120.167 13.0593C120.375 13.1879 120.542 13.2298 120.75 13.2298C120.917 13.2298 121.457 13.2727 121.541 13.4014C121.75 13.4868 121.457 14.1275 121.333 14.4684C121.208 14.8105 121.208 14.8105 121.166 15.0243C121.149 15.0834 121.136 15.125 121.125 15.1599C121.118 15.1578 121.113 15.1538 121.106 15.1515C120.94 15.1094 120.565 15.2377 120.315 15.7071C120.19 15.9205 119.981 16.1764 119.857 16.3048C119.482 17.0311 119.066 17.6288 118.607 18.1844C118.399 18.4832 117.858 18.7821 117.567 19.0809L117.192 19.4222C117.025 19.4649 116.859 19.5502 116.733 19.5935C116.609 19.6356 116.609 19.764 116.318 19.6356C116.15 19.5502 115.901 19.4649 115.859 19.2084C115.776 18.7821 115.734 18.1411 115.734 17.7139C115.734 17.5434 115.734 17.3729 115.693 17.2016L115.693 16.7323C115.693 16.6036 115.609 16.4334 115.568 16.2618C115.526 16.2197 115.484 16.1343 115.442 16.0059C115.193 15.7071 115.027 15.365 114.776 15.0243C114.61 14.8105 114.359 14.5968 114.152 14.4263C113.944 14.2125 113.694 14.0412 113.402 13.8707C113.153 13.7424 112.945 13.6151 112.653 13.5286C112.57 13.4868 112.486 13.4868 112.403 13.4435C112.153 13.3581 111.82 13.3581 111.57 13.4435L111.237 13.5286C110.945 13.6573 110.737 13.8286 110.529 13.9991L109.946 14.64C109.738 14.9389 109.571 15.2799 109.446 15.622C109.363 15.8354 109.28 16.0059 109.197 16.2618C109.155 16.348 109.155 16.3901 109.155 16.4334C109.155 16.5618 109.114 16.6469 109.114 16.7741C109.071 17.2016 109.071 17.6288 109.155 18.0981C109.155 18.1844 109.197 18.3116 109.28 18.397C109.28 18.4402 109.321 18.4832 109.321 18.5686C109.529 19.1663 109.905 19.6356 110.403 20.0628C110.529 20.1479 110.654 20.2333 110.737 20.3184C111.154 20.6173 111.57 20.8313 112.028 21.0024C112.194 21.0448 112.361 21.0877 112.486 21.1731C112.653 21.2164 112.819 21.3015 112.985 21.3436C113.069 21.3866 113.153 21.5152 113.236 21.6003C113.402 21.7275 113.485 21.9413 113.485 22.1548C113.527 22.2834 113.527 22.4539 113.485 22.5393L113.236 23.2232C113.069 23.7355 112.861 24.2481 112.653 24.7175C112.57 24.9312 112.445 25.23 112.32 25.4856C111.82 26.4254 111.362 27.3223 110.82 28.2188C110.737 28.3904 110.612 28.5176 110.529 28.7311C110.446 28.8598 110.363 28.9449 110.237 29.03C110.071 29.2016 109.905 29.3291 109.696 29.415C109.613 29.415 109.571 29.415 109.529 29.4575L109.071 29.4575L108.863 29.3721C108.655 29.3291 108.489 29.2437 108.322 29.1586C108.197 29.0732 108.114 28.9878 108.072 28.9449C107.823 28.689 107.614 28.3904 107.406 28.1334C107.281 27.92 107.156 27.6641 107.073 27.4074C106.906 27.1082 106.781 26.7675 106.698 26.4687C106.532 26.0412 106.406 25.5719 106.281 25.1868C106.24 25.1014 106.24 24.9733 106.24 24.8879C106.157 24.3756 106.073 23.8627 106.073 23.3504C106.073 23.1378 106.032 22.9241 106.032 22.7527C105.99 22.1129 106.032 21.5152 106.157 20.8743C106.157 20.6605 106.198 20.4471 106.198 20.2333L106.323 19.764C106.489 19.0379 106.698 18.3549 106.947 17.7569C107.198 16.9457 107.447 16.1343 107.78 15.3228C107.864 15.1094 107.906 14.9389 107.947 14.7254C108.031 14.4263 108.072 14.0412 108.072 13.7424L108.072 12.8458L108.072 12.4186C108.072 12.3332 108.031 12.2911 108.031 12.2481C107.947 12.0776 107.864 11.9069 107.739 11.7355C107.655 11.6501 107.572 11.48 107.447 11.3946C107.156 11.1811 106.823 11.0095 106.449 11.0095C106.24 10.9671 106.073 10.9671 105.865 11.0095C105.49 11.0095 105.157 11.1378 104.824 11.3083C104.658 11.3946 104.532 11.48 104.407 11.565C104.158 11.8206 103.866 12.0344 103.616 12.2481C103.492 12.4186 103.325 12.59 103.159 12.7604C102.325 13.6151 101.659 14.64 101.201 15.75C101.034 16.2197 100.91 16.689 100.785 17.1595C100.743 17.3729 100.66 17.5855 100.618 17.7993C100.577 18.1411 100.534 18.4402 100.41 18.7391C100.41 18.8672 100.41 18.9525 100.368 19.0379C100.327 19.5935 100.327 20.2333 100.327 20.8313C100.327 21.3436 100.368 21.8559 100.368 22.4118C100.368 22.5823 100.41 22.7527 100.41 22.9241C100.487 23.1641 100.532 23.4038 100.565 23.6438C100.469 23.8198 100.368 23.996 100.267 24.1619C100.143 24.3756 100.017 24.5891 99.9341 24.8025C99.6004 25.5289 99.0176 26.34 98.601 27.0231C98.4767 27.1936 98.0182 28.048 97.8519 28.2188C97.7686 28.3469 97.6435 28.4755 97.4772 28.5609C97.2691 28.689 96.9774 28.689 96.7692 28.4755L96.5189 28.048C96.3104 27.6211 96.2274 27.1936 96.1442 26.7243C96.1034 26.6389 96.1034 26.5959 96.1034 26.5108L96.1034 25.7848C96.1442 25.5289 96.1442 25.1868 96.1442 24.9312C96.1861 24.5891 96.1861 24.2902 96.1861 23.9914C96.1861 23.6072 96.2274 23.265 96.2693 22.9241C96.3104 22.2834 96.3526 21.6857 96.3948 21.0448L96.3948 20.7889C96.3526 20.4471 96.3526 19.7207 96.3526 19.4222C96.3104 19.2944 96.3104 19.2944 96.3104 18.6104C96.3104 18.0981 96.1034 17.5855 96.0609 17.1595C96.0193 16.9457 95.936 16.7323 95.8947 16.5618C95.8117 16.2618 95.7698 16.0489 95.7276 15.8354C95.6032 15.3228 95.3951 14.8526 95.1869 14.3403L94.8122 13.4868C94.7292 13.3581 94.6868 13.1447 94.6038 13.0175C94.5619 12.9309 94.5619 12.8888 94.5208 12.8458C94.3534 12.4616 94.1453 12.2057 93.8128 12.0344C93.4792 11.8639 93.1875 11.6934 92.8131 11.6501C92.2302 11.565 91.6882 11.565 91.1056 11.6501C90.9391 11.6501 90.8142 11.6934 90.6887 11.7785C90.4395 11.9069 90.2313 12.0344 90.0226 12.2057C89.8144 12.3332 89.6482 12.5046 89.4817 12.7183C89.399 12.8888 89.2316 13.0593 89.1064 13.2298C88.7739 13.6573 88.5236 14.1275 88.3151 14.5968C88.1911 14.9389 88.1078 15.2377 87.9826 15.5366C87.8575 15.9629 87.7323 16.348 87.608 16.6469C87.5241 16.8603 87.4409 17.0311 87.3165 17.2446C87.2324 17.33 87.1492 17.415 87.0251 17.5004C86.9002 17.5434 86.7748 17.5004 86.6918 17.415C86.6496 17.3729 86.5663 17.287 86.5255 17.2016C86.4414 16.8174 86.3171 16.5182 86.2749 16.1343C86.2749 15.9629 86.2341 15.7925 86.1919 15.622C86.15 15.4503 86.15 15.3228 86.1087 15.1948C86.0254 14.8956 85.9005 14.5114 85.7753 14.2125C85.6091 13.7002 85.4009 13.2298 85.1092 12.8458C84.9008 12.59 84.6515 12.2911 84.4012 12.0776C84.276 11.9493 84.1517 11.8639 83.9435 11.6934C83.6099 11.48 83.2352 11.3083 82.8608 11.1811C82.7775 11.1811 82.7356 11.1811 82.6524 11.1378C82.3609 11.0095 82.0695 11.0095 81.8192 11.0957L81.6526 11.0957C81.4867 11.1378 81.3193 11.1811 81.1531 11.2659L80.9868 11.3083C80.6121 11.48 80.3621 11.7355 80.0704 12.0776C79.8211 12.3332 79.6127 12.6753 79.4045 12.9739C78.9879 13.7002 78.571 14.4684 78.1964 15.2377C77.9474 15.75 77.7387 16.2618 77.5305 16.8603C77.4886 17.1162 77.4053 17.287 77.3632 17.458C77.3224 17.5855 77.2391 17.7139 77.1972 17.8847C77.1558 17.9709 77.0717 18.056 76.9887 18.0981C76.9477 18.1411 76.9055 18.1411 76.8225 18.1411C76.7803 18.0981 76.7395 18.0981 76.6973 18.0127C76.6141 17.9276 76.5308 17.7569 76.4889 17.6288C76.4059 17.2016 76.2807 16.689 76.2394 16.1764C76.2394 16.0489 76.1145 15.9205 76.0726 15.622C76.0726 15.4936 76.0312 15.2799 75.9893 15.1515C75.9482 14.9807 75.865 14.8526 75.8231 14.64C75.5735 13.7856 75.5735 13.7856 75.3229 12.9309L75.198 12.547C75.1148 12.2911 75.0318 12.0344 74.9485 11.8639C74.7401 11.3946 74.5319 10.9241 74.3657 10.4966C74.2824 10.3264 74.1983 10.1559 74.1156 10.0275C74.0323 9.77168 73.8661 9.55822 73.6576 9.34447C73.3659 9.08774 73.0326 8.87399 72.7001 8.6614C72.5749 8.61841 72.4087 8.53332 72.2413 8.48976C72.1173 8.44793 71.9921 8.40466 71.8666 8.40466C71.6174 8.31957 71.409 8.31957 71.1589 8.44793C71.0756 8.44793 71.0343 8.48976 70.9926 8.48976L70.7842 8.61841C70.659 8.7038 70.4928 8.91726 70.4098 9.08774C70.3265 9.30149 70.2433 9.55822 70.2011 9.77168C70.1184 10.1559 70.0351 10.5831 69.9929 11.0525C69.9929 11.1378 69.9519 11.2229 69.9519 11.3513C69.8267 11.6501 69.8267 12.0344 69.7437 12.3762C69.6182 12.7183 69.6182 13.0593 69.5763 13.4435L69.5352 13.6151C69.4933 13.9137 69.452 14.255 69.452 14.5538L69.452 15.5366C69.4101 15.9205 69.4101 16.4334 69.4101 16.7741L69.4101 17.2111L69.3718 17.2446C68.9963 17.5434 68.6216 17.7569 68.2894 18.056C68.0807 18.2265 67.8725 18.1844 67.6224 18.3549C67.3307 18.525 66.9982 18.6537 66.6646 18.7821C66.5816 18.7821 66.4984 18.7821 66.3732 18.8245L65.2075 19.0809C64.9991 19.123 64.4995 19.2084 64.3332 19.123C64.1659 18.9947 64.1659 18.8672 64.1248 18.525C64.0829 18.3116 64.1659 17.9709 64.2081 17.7569C64.2911 17.33 64.3332 16.9025 64.4576 16.4752C64.5414 16.1343 64.5827 15.75 64.6657 15.4082L64.7076 15.1094L64.7076 14.5114L64.7076 13.9991C64.7076 13.7856 64.6657 13.6151 64.6244 13.4014L64.4995 13.0175C64.4162 12.7604 64.2489 12.4616 64.0829 12.2481C63.8745 12.0776 63.6663 11.9069 63.4168 11.8639C62.9588 11.7785 62.5006 11.8206 62.0426 11.9069C62.0005 11.9069 61.9597 11.9069 61.9597 11.9493C61.7509 11.9923 61.5841 12.0776 61.4176 12.1627C60.7518 12.547 60.1267 12.9739 59.6272 13.5719C59.4184 13.8286 59.2111 14.1696 59.127 14.5114C59.0862 14.5968 59.044 14.7254 59.044 14.8105C59.003 14.9389 58.9608 15.0661 58.9608 15.1948L58.9608 15.7071C58.9608 15.8775 59.003 16.0489 59.044 16.2197C59.044 16.3048 59.0862 16.3901 59.0862 16.4752C59.1692 16.8603 59.2944 17.2016 59.4606 17.5434C59.7101 18.0981 59.794 18.4832 60.2516 18.8672L60.6263 19.2084C60.7937 19.3368 60.918 19.3798 61.0432 19.5073L61.2927 19.764C61.4176 19.8924 61.5428 19.9345 61.6261 20.1061L61.7923 20.3617C61.8764 20.5322 61.8764 20.8313 61.8764 21.0877C61.8342 21.6425 61.7923 21.8559 61.6261 22.4539L61.5009 23.0092C61.3346 23.5221 61.2514 23.8627 61.1262 24.2049L60.7096 25.2719C60.5433 25.6994 60.4182 26.0836 60.2516 26.5538C60.0857 27.0231 59.8772 27.1515 59.794 27.4506C59.5025 28.4323 58.8778 27.4506 58.7948 27.3223C58.5442 26.8529 58.5442 26.6389 58.2947 26.2117L58.0446 25.614C57.8361 25.1868 57.7951 24.8025 57.6699 24.4607C57.5447 24.2481 57.5447 24.0768 57.5037 23.8627L57.4207 23.6072C57.2955 23.3086 57.3785 23.1378 57.2533 22.7957C57.129 22.4969 57.129 22.0697 57.0038 21.7708C57.0038 21.5152 56.9619 21.2582 56.9208 21.0024L56.9208 20.1912C56.8786 19.9345 56.9208 19.6789 56.9208 19.4649L56.9208 18.5686C56.9208 18.3116 56.9619 18.0981 56.9619 17.8847C56.9619 17.7569 56.8786 17.33 56.8378 17.2446C56.5464 16.9457 55.8789 16.8603 55.5045 16.7741L55.296 16.7741C54.9216 16.7741 54.505 16.8603 54.1726 16.9878L54.0052 17.1162C53.756 17.2446 53.5886 17.5004 53.4642 17.7139L53.1728 18.3116C53.0479 18.6537 52.9647 18.9947 52.9228 19.3798C52.9228 19.5073 52.8395 19.5935 52.8395 19.7207C52.7973 19.9345 52.7973 20.1479 52.7562 20.4047L52.7562 20.7038C52.7562 21.0448 52.7973 21.429 52.8395 21.7275C52.9228 21.8992 52.9228 22.0697 52.9228 22.2401L53.0479 23.5639L53.0479 23.8627C53.0479 23.9914 53.0057 24.0768 53.0057 24.1619C53.0057 24.5467 52.9228 24.9312 52.7562 25.2719L52.3396 26.1696C52.2986 26.2971 52.2145 26.4254 52.1315 26.5538C52.0482 26.6822 51.9649 26.7675 51.882 26.8529C51.6735 26.981 51.4654 26.981 51.2158 26.8948C51.0488 26.8529 50.8825 26.7243 50.7993 26.5538C50.7571 26.4687 50.7163 26.4254 50.6322 26.34L50.4656 25.9131C50.4656 25.7848 50.3826 25.6573 50.3407 25.4856C50.3407 25.4002 50.2994 25.3154 50.2575 25.23C50.0912 24.8879 49.966 24.3332 49.8828 23.949C49.8409 23.7355 49.7998 23.4788 49.7998 23.2232C49.7579 23.0946 49.7579 22.9665 49.7165 22.8811C49.6333 22.5393 49.5916 22.198 49.5084 21.8559C49.4665 21.6857 49.4665 21.5152 49.4251 21.3436C49.4251 20.9164 49.3832 20.5322 49.3421 20.1479C49.2999 19.8491 49.2999 19.5073 49.3421 19.2084C49.4251 18.7821 49.4251 18.3549 49.4251 17.9276C49.4251 17.7139 49.5492 17.1595 49.5492 16.9457C49.5916 16.7741 49.5916 16.6469 49.5916 16.4752C49.5916 16.348 49.5916 16.2197 49.6333 16.1343L49.7579 15.2799C49.7998 15.1094 49.8828 14.8956 49.925 14.6822L50.0493 14.3403C50.0912 14.2125 50.0912 14.0845 50.0912 13.9561C50.1334 13.7002 50.2994 13.3581 50.2994 13.1025C50.2994 12.6321 50.4248 12.7604 50.2575 12.1195C50.2575 12.0344 50.2164 11.9493 50.1334 11.8639C50.008 11.565 49.7998 11.3946 49.5084 11.2659C49.3421 11.1811 49.1748 11.0957 49.0088 11.0957C48.8833 11.0957 48.8001 11.0525 48.7171 11.0525C48.2586 11.0095 47.8428 11.0095 47.384 11.0957C47.343 11.1378 47.26 11.1378 47.2178 11.1811C46.8845 11.3083 46.593 11.5218 46.3846 11.8639L46.2603 12.0776C46.0099 12.4616 45.8015 12.8888 45.5933 13.316C45.3438 13.8286 45.1356 14.383 44.9272 14.9389C44.8175 15.3153 44.6743 15.7258 44.5278 16.14C44.46 16.185 44.4147 16.252 44.3885 16.3048C44.1801 16.4752 44.0557 16.6469 43.9728 16.9025C43.9306 17.0729 43.8476 17.2446 43.8057 17.415C43.7643 17.6718 43.6802 17.9276 43.6394 18.1411C43.5969 18.2698 43.5969 18.397 43.514 18.4832L43.0144 20.0196C42.9311 20.2333 42.8059 20.4047 42.723 20.6173C42.5145 21.0024 42.4734 21.5571 42.2653 21.9413C42.182 22.2401 42.0988 22.4539 42.0569 22.6674C41.9314 22.9241 41.8906 23.1378 41.8065 23.3504L41.557 24.2481C41.5151 24.4186 41.4318 24.5891 41.3488 24.7607C41.1404 25.1447 40.9322 25.5289 40.766 25.9131C40.5575 26.255 40.3913 26.6389 40.1407 27.0231C40.1407 27.0664 40.1407 27.1515 40.0999 27.1936C39.9744 27.4074 39.8084 27.5787 39.683 27.7925L39.2253 28.2618C39.1834 28.305 38.9753 28.4323 38.7257 28.1764C38.5584 28.005 38.2669 27.7062 38.2669 26.938C38.2262 26.7675 38.2262 26.5538 38.1837 26.3825C38.1837 26.2117 38.1429 26.0412 38.1429 25.8277L38.1429 24.7175C38.1429 24.3756 38.1007 23.9914 38.1007 23.6504C38.0588 23.4367 38.0588 23.265 38.0174 23.0946C38.0174 23.0092 37.9755 22.9665 37.9755 22.8811C37.9755 22.839 37.9342 22.7957 37.9342 22.7106C37.8515 22.3688 37.8093 21.9846 37.8515 21.6425C37.8925 21.0877 37.8515 20.5322 37.7674 19.9777C37.726 19.8061 37.6841 19.5935 37.6841 19.4222C37.6008 18.9947 37.5598 18.5686 37.5179 18.1411C37.5179 18.0127 37.5598 17.8847 37.5598 17.7569C37.5598 17.458 37.6008 17.1595 37.6841 16.8603C37.726 16.8174 37.726 16.7323 37.726 16.689C37.7674 16.2197 37.8515 15.7071 37.8925 15.1094L37.8925 14.8526C37.8515 14.5538 37.8515 14.255 37.8515 13.9137C37.8515 13.7002 37.7674 13.4435 37.5598 13.2727C37.3927 13.1025 37.3097 13.0175 37.1432 12.9309L36.8096 12.8037C36.6436 12.7183 36.4762 12.6753 36.31 12.6753L35.9353 12.6753C35.6861 12.6753 35.4776 12.7604 35.3102 12.9739C35.0188 13.2727 34.7274 13.5719 34.5192 13.9561C34.3949 14.1275 34.3111 14.255 34.2278 14.4263C34.0194 14.7254 33.8534 15.0661 33.6869 15.365C33.6447 15.4936 33.6039 15.622 33.5617 15.7071L33.3125 16.4334C33.2703 16.5182 33.2281 16.6469 33.2281 16.7741C33.187 17.0311 33.104 17.2446 33.0199 17.5004C32.937 17.7569 32.8537 18.056 32.8123 18.3549L32.5623 19.4649C32.479 19.8061 32.479 20.1912 32.396 20.5322C32.3541 20.6605 32.3541 20.7889 32.3128 20.9164C32.2298 21.1299 32.1876 21.3866 32.1454 21.6003C32.0624 21.8992 31.9372 22.198 31.8132 22.4969L31.5625 22.9665C31.3133 23.2232 31.063 23.5221 30.8548 23.8209L29.7307 25.23C29.4393 25.5289 29.1479 25.8707 28.8975 26.2117C28.7313 26.3825 28.565 26.5538 28.3569 26.7243C28.2314 26.8094 28.1063 26.938 27.94 27.0231L27.6067 27.1515C27.4823 27.1082 27.3982 27.0231 27.3572 26.8948C27.2742 26.8094 27.1909 26.7243 27.1909 26.5959C27.149 26.4687 27.1068 26.34 27.1068 26.2117C27.0235 25.7848 27.0657 25.3584 27.0657 24.9312L27.0657 24.7607C27.149 24.3756 27.149 24.0344 27.149 23.6504C27.149 23.3504 27.1909 23.0516 27.2742 22.7527C27.3572 22.3264 27.3572 22.3264 27.2742 21.8141L27.2742 21.472C27.315 21.0877 27.3572 20.7459 27.3572 20.3617C27.3982 20.1061 27.4823 19.8924 27.5653 19.6356C27.6486 19.5073 27.7318 19.3368 27.7738 19.1663C27.94 18.5686 28.0652 17.9709 28.2314 17.3729L28.3569 17.0311C28.5229 16.7741 28.7313 16.5182 28.8565 16.2618C28.9805 16.0059 29.0227 15.9629 29.189 15.8354C29.3141 15.7071 29.4393 15.5787 29.6056 15.4503C29.7307 15.3228 29.8562 15.1948 29.9392 15.0661C30.0224 14.9389 30.1051 14.8526 30.1476 14.7673C30.3139 14.5538 30.3971 14.4684 30.7305 14.3403L31.063 14.2125C31.3544 14.0412 31.5625 13.8707 31.8132 13.6573C31.8962 13.5719 31.9794 13.4868 32.0213 13.4014C32.1454 13.1879 32.2708 12.9739 32.4371 12.7604C32.5209 12.6753 32.5623 12.59 32.6452 12.4616C32.7704 12.2481 32.7285 11.9923 32.6452 11.7785C32.5623 11.6072 32.4371 11.48 32.3128 11.3513C32.0213 11.1378 31.7299 10.9241 31.3963 10.7536C31.1462 10.5831 30.8967 10.4118 30.6053 10.3264C30.4388 10.2843 30.2717 10.198 30.1051 10.1559C29.9392 10.0705 29.7307 10.0705 29.5648 10.0275C29.3141 9.98428 29.106 10.0275 28.8565 10.1559C28.6058 10.2843 28.3147 10.3694 28.0652 10.5401C27.8148 10.7106 27.5234 10.796 27.2742 10.9671L26.9406 11.0957C26.6069 11.2659 26.3155 11.4364 26.0244 11.6934C25.6083 12.0344 25.192 12.4186 24.8584 12.8037L23.9841 13.7856C23.9009 13.8707 23.8179 13.9561 23.7754 14.0412C23.5262 14.3403 23.3591 14.6822 23.1096 14.9389C23.0263 15.0243 22.9844 15.1515 22.9014 15.2377C22.9014 15.2799 22.8592 15.365 22.8182 15.4082C22.7931 15.4982 22.7585 15.5836 22.7206 15.667C22.5664 15.6762 22.4851 15.7956 22.4455 15.8775C22.2373 16.0489 22.1118 16.2197 22.0291 16.4752C21.9869 16.6469 21.9037 16.8174 21.8626 16.9878C21.8204 17.2446 21.7374 17.5004 21.6955 17.7139C21.6542 17.8423 21.6542 17.9709 21.5715 18.056L21.1183 19.4493C21.116 19.4548 21.1127 19.4591 21.1107 19.4649L20.9855 19.8061C20.9852 19.8064 20.9852 19.807 20.9852 19.8075C20.8719 20.079 20.6767 20.52 20.3633 21.1299C20.1549 21.5152 19.9889 21.8992 19.7385 22.2401C19.6134 22.4969 19.489 22.7106 19.4058 22.9241C19.2806 23.1378 19.2806 23.0946 19.1143 23.3086C18.947 23.5221 18.781 23.7776 18.5726 24.0344C18.4893 24.1619 18.3641 24.2902 18.1979 24.4607C17.8645 24.7175 16.7408 25.614 16.907 25.0163C17.0733 24.7175 17.2404 24.3756 17.3236 24.0344L17.4477 23.4788C17.4899 23.265 17.5321 23.0516 17.6564 22.8811C17.7816 22.7957 17.8645 22.7106 17.9478 22.5393L18.0727 22.2401C18.1149 21.8992 18.1149 21.5152 18.156 21.1731C18.1979 20.8743 18.2392 20.6173 18.4063 20.4047C18.4474 20.3617 18.4893 20.2333 18.4893 20.1912C18.6148 19.8924 18.6556 19.6789 18.6556 19.4222C18.5726 18.8672 18.4893 18.3116 18.4474 17.7569L18.2392 17.2016C18.1979 16.9878 18.2392 16.7741 18.1979 16.6036C18.1979 16.4334 18.156 16.3048 18.156 16.1343C18.1149 15.9629 17.9897 15.7071 17.9478 15.5366C17.7816 15.1515 17.6564 14.7254 17.4477 14.2979C17.4069 14.1275 17.2817 13.9991 17.0733 13.7856C16.9492 13.6573 16.824 13.6573 16.7408 13.4014C16.5734 13.0175 16.3652 12.6753 16.0738 12.3332C15.9906 12.2481 15.9495 12.1627 15.8654 12.0344C15.7413 11.8639 15.5329 11.7785 15.4077 11.6072C15.2415 11.5218 15.033 11.4364 14.9078 11.3513C14.6997 11.1811 14.4502 11.0095 14.2828 10.8387C14.0336 10.7106 13.7841 10.6252 13.617 10.4118C13.4929 10.4118 13.4505 10.3694 13.4088 10.3264C13.2004 10.1559 12.9509 10.0705 12.7427 9.94245C12.6594 9.94245 12.6173 9.8989 12.4932 9.8989C12.1599 9.72841 11.7852 9.68543 11.3686 9.72841C11.1191 9.77168 10.8687 9.85707 10.6195 9.98428C10.5351 10.0275 10.3689 10.0705 10.2859 10.1559C9.70302 10.4548 9.16097 10.882 8.74549 11.4364C8.66139 11.5218 8.57812 11.6501 8.53733 11.7785C8.20372 12.1627 7.99528 12.547 7.70385 12.9739C7.57868 13.2727 7.41243 13.7002 7.32945 13.9991C7.28725 14.1275 7.24619 14.2125 7.1632 14.3403C7.12073 14.4263 6.99583 14.5114 6.91257 14.5968C6.78739 14.64 6.70441 14.5968 6.66334 14.4684C6.53788 14.0845 6.4549 13.7424 6.32972 13.4014C6.24674 13.2298 6.16348 13.0593 6.08021 12.9309C5.99611 12.8037 5.95504 12.7183 5.91312 12.59C5.78879 12.1195 5.53844 11.6501 5.41326 11.1811C5.33028 11.0095 5.24701 10.882 5.2051 10.7106C5.08105 10.4118 4.87233 10.1559 4.62226 9.98428C4.49792 9.85707 4.37275 9.72841 4.2065 9.64332C4.03913 9.47313 3.83097 9.34447 3.58146 9.25909C3.45628 9.17399 3.29004 9.08774 3.12379 9.00264C2.9567 8.91726 2.79046 8.87399 2.62393 8.74678C2.37358 8.57514 2.04108 8.74678 1.87399 9.00264C1.79073 9.13072 1.74882 9.21611 1.66555 9.30149L1.41604 9.8138C1.33306 10.1126 1.29115 10.4118 1.29115 10.7106L1.29115 11.0957C1.33306 11.3083 1.33306 11.565 1.29115 11.8206C1.20789 12.4186 1.16597 13.0593 1.08271 13.6573C1.08271 13.9137 0.999726 14.1275 0.958376 14.383C0.916462 14.5114 0.582845 15.1094 0.499582 16.3048C0.458794 16.6036 0.582845 18.397 0.541776 18.6958C0.499582 18.9947 0.499582 19.2944 0.499582 19.6356L0.499582 20.1912C0.458794 20.4047 0.416599 20.6605 0.416599 20.9164L0.416599 22.0275C0.416599 22.3264 0.374686 22.6252 0.374686 22.9241C0.333617 23.4367 0.291423 23.9063 0.208159 24.4186C0.208159 24.5891 0.167371 24.7607 0.167371 24.9312C0.167371 25.614 0.125177 26.2971 0.167371 26.981C0.208159 27.1082 0.208159 27.2369 0.167371 27.3652C0.167371 27.5787 0.125177 27.8346 0.167371 28.0913L0.167371 28.4323C0.125177 28.9449 0.0832636 29.415 0.0832636 29.9268C0.0419131 30.4824 0.0832636 31.0376 0.0419131 31.5924L0.0419131 31.7631C0.0419131 32.0199 0.0419131 32.2754 0 32.4892L0 34.3255C0.0419131 34.5393 0.0832636 34.7949 0.167371 35.0516C0.208159 35.2221 0.167371 35.3925 0.167371 35.5642C0.0832636 35.9914 0 39.1506 0 39.4074C0 40.3893 0.0419131 41.3712 0.125177 42.354C0.167371 42.5245 0.167371 42.7382 0.250635 42.9087L0.499582 43.7631C0.582845 44.0187 0.708303 44.2327 0.833199 44.4462L0.958376 44.5746C1.04164 44.6597 1.12462 44.7029 1.2498 44.7029C1.37413 44.745 1.49931 44.745 1.62448 44.7029C1.74882 44.7029 1.83292 44.6597 1.95698 44.5746C2.12435 44.4892 2.2484 44.3608 2.41577 44.2757C2.49875 44.2327 2.62393 44.1474 2.70719 44.062C2.9567 43.8052 3.24813 43.5915 3.49848 43.2929C3.58146 43.1654 3.74771 43.0371 3.87316 42.9517C4.12211 42.78 4.37275 42.5677 4.58091 42.354C4.74743 42.1824 4.95559 42.0973 5.2051 42.0551C5.28921 42.0551 5.33028 42.0119 5.41326 42.0119C5.45545 42.0119 5.49737 41.9701 5.58063 41.9701C5.74688 41.8838 6.08021 41.713 6.16348 41.5425C6.32972 41.2861 6.49597 41.0302 6.62115 40.7732C6.74632 40.5598 6.8715 40.3472 6.95476 40.1337C6.99583 40.005 6.99583 39.8767 7.03803 39.7486L7.20399 39.4498C7.28725 39.279 7.32945 39.1085 7.37136 38.8951C7.32945 38.5962 7.41243 38.2971 7.49541 37.9982C7.53761 37.8269 7.49541 36.3753 7.37136 36.0335C7.28725 35.82 7.32945 35.5642 7.41243 35.3507C7.45434 35.2221 7.24619 33.429 7.28725 33.0448C7.28725 33.0018 7.32945 32.9164 7.32945 32.8734L7.32945 32.6597C7.41243 32.2333 7.41243 31.8064 7.28725 31.4219C7.24619 31.2084 7.20399 31.0376 7.20399 30.8666C7.20399 30.6528 7.24619 30.4824 7.24619 30.3119C7.28725 30.0981 7.28725 29.9268 7.24619 29.756C7.24619 29.5855 7.20399 29.3721 7.20399 29.2016C7.20399 28.9027 7.12073 28.6039 7.07881 28.305C7.03803 28.0913 6.99583 27.92 7.03803 27.7492C7.03803 27.3652 7.07881 27.0231 7.07881 26.6389C7.07881 26.2117 7.1632 25.7848 7.20399 25.3584C7.24619 25.1014 7.28725 24.8879 7.28725 24.6321L7.28725 24.0768C7.37136 23.6504 7.41243 23.2232 7.53761 22.7957C7.62087 22.4539 7.70385 22.0275 7.74577 21.6425C7.99528 20.4047 7.99528 21.2582 8.12045 20.1479L8.24563 19.5073C8.41188 19.0379 8.53733 18.6104 8.62032 18.1411C8.7033 17.7569 8.82876 17.287 8.995 16.9025C9.0777 16.689 9.12018 16.3901 9.16097 16.0913C9.24508 15.8775 9.32834 15.622 9.49459 15.365L10.0774 14.255C10.2029 14.0412 10.3278 13.8286 10.4943 13.6151C10.6603 13.2727 10.8687 13.0175 11.1601 12.8458C11.2853 12.7183 11.5767 12.6321 11.7022 12.6753C11.8262 12.6753 11.9104 12.7604 12.0344 12.8458C12.1177 12.8888 12.1599 12.9309 12.2018 12.9739L12.4932 13.4868C12.6173 13.7002 12.7014 13.8707 12.7427 14.0845C12.826 14.2979 12.8676 14.5968 12.9509 14.8526C13.1171 15.2377 13.2004 15.6641 13.2004 16.0913C13.2423 16.4334 13.2423 16.7741 13.2423 17.1162C13.2423 17.458 13.3256 17.8423 13.3256 18.1844C13.3256 18.2265 13.3675 18.3116 13.3256 18.3549C13.2845 18.9096 13.2845 19.4649 13.2004 20.0196C13.2004 20.2333 13.2004 20.6173 13.0341 20.9594C12.909 21.2582 12.9928 21.5571 12.8676 21.8559C12.826 22.0697 12.7014 22.4539 12.6173 22.6674C12.5765 23.2232 12.4513 23.5221 12.285 24.0768L12.1177 24.8458C11.9936 25.1868 11.9104 25.4856 11.8262 25.8277C11.7852 26.0412 11.7022 26.1696 11.6189 26.3825C11.4105 26.7675 11.2434 27.1082 11.035 27.4506C10.9106 27.5787 10.8276 27.6641 10.7025 27.7062C10.6195 27.8346 10.4943 27.8346 10.3278 27.8346C9.70302 27.92 9.78601 28.3469 10.3278 28.7311C10.8276 29.0732 11.2853 29.415 11.7022 29.2867C12.1177 29.1586 12.6173 28.9878 12.826 28.9449C13.7841 29.0732 14.8671 28.3904 14.9498 28.3904C15.1163 28.3469 15.4077 27.8775 15.574 27.92C15.8243 27.8775 16.4904 27.4933 16.6156 27.4506C17.1155 27.2369 17.4899 27.0231 17.9478 26.8094C18.4063 26.5959 19.0724 26.0836 19.489 25.6994C19.7805 25.4002 20.0719 25.0596 20.3633 24.8025C20.4508 24.7431 20.4972 24.6825 20.5456 24.6081L20.6528 25.23C20.6938 25.4435 20.736 25.614 20.8193 25.7848C20.9023 26.0412 21.0274 26.34 21.1937 26.5959L21.5692 27.2369C21.7357 27.4933 21.9439 27.7062 22.1101 27.9629C22.2353 28.0913 22.3594 28.2188 22.5267 28.3469C22.9433 28.689 23.3591 28.9878 23.8179 29.2867C23.9841 29.415 24.1504 29.5004 24.3175 29.5425C24.4837 29.6279 24.65 29.6709 24.8173 29.756L25.3169 29.8844C25.6916 29.8844 26.066 29.9268 26.3999 29.9698C26.6489 29.9698 26.8995 29.9698 27.1068 29.8844C27.3572 29.8844 27.6067 29.8414 27.8148 29.7993C28.2314 29.6709 28.6483 29.5855 29.0646 29.4575C29.2312 29.415 29.3974 29.3291 29.5648 29.2437C29.6888 29.1586 29.8562 29.03 29.9392 28.9027C30.3558 28.3904 30.7715 27.8346 31.0216 27.1936C31.1049 27.0231 31.1881 26.8529 31.3133 26.7243L31.6877 26.3825C31.854 26.255 32.0624 26.255 32.1876 26.3825C32.2708 26.4687 32.3128 26.5538 32.3541 26.6822L32.7285 27.5357C32.7704 27.6641 32.8123 27.7492 32.8537 27.8775L32.9786 28.2188C33.3125 28.7311 33.6447 29.2437 34.1035 29.6279C34.1446 29.6709 34.1867 29.7142 34.2697 29.756C34.436 29.8844 34.6444 30.013 34.8526 30.1402L35.6861 30.5253C35.7271 30.5677 35.8104 30.5677 35.8523 30.5677C36.1015 30.6528 36.31 30.6958 36.5603 30.6958C36.8517 30.6528 37.1432 30.6528 37.4759 30.6528C37.9342 30.6107 38.6006 30.6107 39.0582 30.3973C39.3497 30.2686 39.6 30.1402 39.8914 30.0551C39.9325 30.0551 39.9744 30.013 40.0577 29.9698C40.3491 29.7993 40.6827 29.6279 40.8909 29.2867C40.8909 29.2437 40.9322 29.2016 40.9741 29.1586C41.0993 28.9878 41.2236 28.8598 41.3488 28.7311C41.5151 28.5609 41.5992 28.4323 41.64 28.305C41.8906 27.8346 42.0147 27.3652 42.2653 26.981C42.4315 26.4687 42.723 25.9982 42.9733 25.4856C43.1393 25.1014 43.3058 24.6745 43.514 24.2902C43.5562 24.2049 43.5969 24.0768 43.5969 23.949C43.7224 23.6504 43.7643 23.3504 43.8057 23.0516C43.8476 22.8811 43.8476 22.7106 43.9306 22.4969C43.9744 22.4072 44.0119 22.3062 44.047 22.2029C44.0768 22.5179 44.1283 22.8341 44.2192 23.1378C44.2614 23.2232 44.2614 23.3504 44.2614 23.4367C44.3443 23.7355 44.4273 24.0344 44.4695 24.3332C44.4695 24.4186 44.5106 24.5037 44.5528 24.5891C44.5947 24.8025 44.678 25.0163 44.7609 25.1868C44.9694 25.7848 45.2189 26.34 45.4692 26.8948C45.8015 27.5357 46.2183 28.1764 46.6349 28.7311C46.9686 29.1586 47.384 29.5425 47.8839 29.7993C48.1343 29.9268 48.3835 30.013 48.6341 30.0981C48.8001 30.1402 48.9663 30.1835 49.1748 30.1835C49.3421 30.2265 49.5084 30.2265 49.7165 30.1835C49.7998 30.1835 49.8828 30.1835 49.966 30.1402C50.3826 30.013 50.7571 29.8414 51.0907 29.5855C51.3821 29.415 51.6316 29.2016 51.8398 28.9449L52.8395 27.8346L53.1728 27.4506C53.2561 27.3652 53.3391 27.2799 53.4223 27.1515L53.7138 26.8529C53.8389 26.7243 53.8811 26.6822 54.0052 26.7243C54.0474 26.7243 54.1726 26.8529 54.2555 26.981C54.3388 27.1515 54.4221 27.4074 54.464 27.5357C54.6302 27.92 54.6721 28.0913 54.7554 28.2618C54.8797 28.5609 55.0049 28.689 55.1298 28.8598C55.2553 28.9449 55.3385 29.1586 55.4212 29.2437C55.6707 29.5004 55.7962 29.5855 56.0043 29.7993C56.0876 29.8844 56.2536 30.1402 56.3377 30.1835C56.5872 30.3537 56.7954 30.4824 57.2955 30.6528C57.5447 30.7379 57.5869 30.6958 57.8361 30.7812C58.0446 30.8666 58.2117 30.9096 58.336 30.8666C58.9189 30.6958 58.9189 30.6958 59.044 30.6107C59.4606 30.4391 59.6688 30.2265 60.0435 29.8414C60.5433 29.2867 60.7518 28.9027 61.0851 28.3469L61.709 27.1936C61.9175 26.8094 62.0837 26.4254 62.2089 25.9982C62.4592 25.2719 62.5833 24.7607 62.7917 23.9063C62.9588 23.1378 63.1664 22.7957 63.2916 22.2401C63.4168 21.7275 63.4578 21.6425 63.4998 21.5152C63.583 21.2582 63.583 21.0877 63.6252 21.0024C63.7504 20.7889 63.8334 20.6605 64.0418 20.5754C64.1659 20.49 64.3743 20.49 64.4995 20.4471C64.6657 20.4047 64.8739 20.4471 65.0404 20.4047C65.7904 20.2766 66.165 20.2333 66.7479 20.0196C67.5392 19.764 68.2472 19.5502 68.9555 19.123C69.1105 19.0235 69.2646 18.9234 69.4157 18.8196C69.4269 19.5453 69.452 20.3 69.452 21.0024C69.452 21.2164 69.452 21.472 69.4933 21.7275C69.4933 21.8992 69.4933 22.0697 69.5352 22.2401C69.5763 22.7106 69.6182 23.18 69.6182 23.6072C69.6596 24.0768 69.7015 24.5891 69.7845 24.9733C69.8267 25.2719 69.9097 25.614 69.9929 25.9131C70.0351 26.34 70.1592 26.6822 70.2433 27.0664C70.3673 27.5787 70.4928 28.005 70.576 28.4755C70.742 28.9027 70.9094 29.3291 71.1589 29.7142C71.3671 30.0981 71.6585 30.4391 71.9499 30.7379C72.2002 30.9517 72.4498 31.0376 72.7412 31.123C72.7831 31.123 72.8244 31.1654 72.8244 31.1654C73.0745 31.1654 73.324 31.1654 73.5747 31.08C73.7828 30.995 73.991 30.9517 74.1983 30.8242C74.2824 30.7812 74.4067 30.6958 74.5319 30.6528C75.0318 30.3537 75.5316 30.1402 75.9893 29.9268C76.1564 29.8844 76.3226 29.756 76.4481 29.7142C76.7395 29.5855 76.9055 29.3721 77.1139 29.1586L77.3632 28.689C77.4473 28.4323 77.4886 27.0231 77.6135 26.1266C77.6549 25.8277 77.7387 25.5289 77.78 25.23L77.9052 24.8025C77.9882 24.5891 78.0304 24.3332 78.0715 24.0768L78.571 22.5823C78.6132 22.3264 78.6965 22.0275 78.7795 21.7708C78.8625 21.5152 78.9047 21.2164 78.9457 20.9594C79.0298 20.6173 79.1128 20.2766 79.1542 19.9345C79.2374 19.6789 79.2793 19.4222 79.3213 19.2084C79.3213 18.9525 79.4045 18.6958 79.4456 18.4832C79.4875 18.1411 79.6127 17.8423 79.6537 17.5855C79.737 17.33 79.7789 17.1595 79.8622 16.9457C79.9044 16.7323 80.0284 16.5618 80.1125 16.3901C80.1536 16.3048 80.2366 16.2197 80.3199 16.1343C80.3621 16.0913 80.4872 16.0059 80.5702 16.0913C80.5702 16.0913 80.6121 16.0913 80.6121 16.1343C80.6954 16.2197 80.7365 16.2618 80.7786 16.3901C80.8197 16.6036 80.8197 16.9025 80.8197 17.1162C80.8616 17.6288 80.8616 18.0981 80.9035 18.6104C80.9035 18.6958 80.9035 18.8245 80.8616 18.9096L80.8616 19.5502C80.8197 20.2766 80.8197 21.0448 80.9035 21.7708C80.9449 22.0275 80.9449 22.2834 80.9868 22.5393C80.9868 22.9241 80.9868 23.6072 81.0701 23.9914C81.1111 24.1198 81.1111 24.2481 81.1531 24.3756C81.195 24.7175 81.3193 25.3584 81.4026 26.34C81.4445 26.6822 81.4867 27.5787 81.5277 28.1334C81.5699 28.4755 81.8614 28.8162 82.0695 29.1162C82.2358 29.3291 82.4023 29.5425 82.6105 29.7142C82.7775 29.8844 82.9851 29.9698 83.1522 30.0551C83.1933 30.1402 83.2352 30.1402 83.2352 30.1402C83.6929 30.2265 84.1098 30.2265 84.4431 30.013L84.984 29.756C85.4428 29.5004 85.8172 29.2437 86.2749 29.03C86.4001 28.9878 86.5663 28.9027 86.6918 28.8162C86.9002 28.6457 87.1084 28.3904 87.2324 28.0913C87.2746 27.9629 87.3579 27.8346 87.3998 27.2799C87.3998 27.0231 87.5241 26.5108 87.566 25.5719C87.566 25.3584 87.608 25.1014 87.6493 24.8458L87.7742 23.949C87.8164 23.5221 87.9407 22.839 87.9826 22.6252C88.0237 22.4118 88.1078 22.198 88.1489 22.0275C88.1911 21.7708 88.2319 21.5571 88.3151 21.3015C88.357 21.0448 88.4403 20.8313 88.5236 20.6173C88.6077 20.3617 88.6488 20.1061 88.7317 19.8924C88.8991 19.123 89.1064 18.397 89.3149 17.6718C89.3568 17.458 89.44 17.2446 89.4817 17.0311C89.523 16.8603 89.6482 16.6469 89.7312 16.4752L89.9818 16.2618C90.1059 16.1764 90.314 16.2197 90.3973 16.348C90.5227 16.4752 90.6057 16.7323 90.6476 16.9025C90.6476 17.0311 90.6887 17.1162 90.6887 17.2016C90.4814 18.8245 90.5647 19.6356 90.5647 20.4047C90.5647 20.6173 90.6057 20.8313 90.6057 21.0448C90.6057 21.472 90.6476 21.8992 90.7309 22.3264C90.7728 22.4539 90.7728 22.6252 90.8142 22.839C90.8142 22.9665 90.8142 23.0516 90.8561 23.1378C90.9391 23.3934 90.9804 23.6925 91.0223 23.949C91.0642 24.1619 91.1475 24.4186 91.1886 24.5891C91.3559 25.1014 91.397 26.6822 91.6052 27.1936C91.8966 28.048 92.2302 29.1586 93.1875 30.2265C93.5621 30.6107 94.2705 30.9517 94.6449 31.0376C94.77 31.0376 94.8955 31.08 95.0204 31.08C95.2699 31.1654 95.5191 31.1654 95.7698 31.123L96.3104 30.995C96.4356 30.9517 96.5189 30.9096 96.603 30.9096C96.7692 30.8242 96.9357 30.7379 97.1017 30.6107C97.5183 30.3537 97.9771 30.1835 98.3518 29.9268C99.0595 29.415 99.3509 28.8162 99.5172 28.689C99.8089 28.5176 99.9751 28.2188 100.183 27.9629C100.225 27.8346 100.309 27.7492 100.392 27.6211C100.517 27.3652 100.642 27.1082 100.766 26.8948C100.878 26.6201 100.991 26.3602 101.109 26.1099C101.407 26.8803 101.85 27.5928 102.325 28.305C102.617 28.7744 102.95 29.1586 103.367 29.5855C103.492 29.7142 103.616 29.7993 103.783 29.9268C104.449 30.3973 105.199 30.7812 106.032 30.9517C106.073 30.995 106.115 30.995 106.157 30.995L107.156 31.123L107.531 31.123L108.697 30.995C108.78 30.995 108.863 30.995 108.946 30.9517C109.321 30.8666 109.696 30.7812 110.071 30.6528C110.32 30.5677 110.529 30.4824 110.737 30.3119C111.028 30.1402 111.279 29.9698 111.528 29.7993C111.779 29.5855 112.07 29.3291 112.278 29.1162C112.486 28.9027 112.653 28.689 112.819 28.4323C113.028 28.0913 113.236 27.7062 113.402 27.3652C113.568 27.0664 113.777 26.6822 113.86 26.34L113.985 26.0412C114.11 25.5719 114.277 25.1447 114.527 24.6745C114.776 23.9914 114.902 24.0344 115.068 23.3086C115.151 23.0946 115.193 22.839 115.318 22.6252C115.359 22.4539 115.442 22.2834 115.568 22.0697C115.693 21.8559 115.651 21.3866 116.109 21.3015C116.359 21.2582 116.525 21.3015 116.733 21.1299C116.942 21.0024 117.233 20.9164 117.441 20.7459C117.983 20.4047 118.275 20.2766 118.899 19.5502C119.19 19.2084 119.649 18.6104 119.898 18.1844C120.065 18.0127 120.19 17.7569 120.357 17.5434L120.96 16.6498C121.141 16.6541 121.47 16.4657 121.625 16.348C121.791 16.2197 121.957 15.9629 122.082 15.7925C122.207 15.622 122.541 15.1515 122.624 14.8956C122.707 14.64 122.832 14.5968 122.916 14.5114C122.999 14.4263 123.082 14.3403 123.124 14.255L123.248 13.9991C123.373 13.6573 123.499 13.5719 123.831 13.5719C124.039 13.5719 124.248 13.6573 124.29 13.6151C124.456 13.5719 124.622 13.5719 124.747 13.5286C125.081 13.4014 124.873 13.4868 125.289 13.4435C125.705 13.4014 125.664 13.4435 126.081 13.5286C126.164 13.5286 126.33 13.5719 126.372 13.5286C126.746 13.4435 126.746 13.3581 127.121 13.3581C127.287 13.3581 127.412 13.4014 127.579 13.4435C127.663 13.4435 127.663 13.6573 127.704 13.7424L127.704 13.8286C127.704 14.0412 127.538 14.2979 127.496 14.5538C127.412 14.7254 127.329 14.8526 127.287 14.9807C127.246 15.1515 127.163 15.365 127.038 15.5366C126.955 15.75 126.913 15.9629 126.872 16.1764C126.872 16.3048 126.83 16.4334 126.788 16.5618C126.58 17.0311 126.455 17.5004 126.247 17.9276L126.121 18.5686C125.996 19.2084 125.955 19.8061 125.83 20.4471C125.705 20.7889 125.705 21.1299 125.705 21.472L125.581 23.6072C125.581 23.8627 125.581 24.1619 125.622 24.4607C125.622 24.6321 125.664 24.8458 125.664 25.1014C125.705 25.23 125.705 25.3154 125.789 25.4856C125.913 25.8277 125.996 26.1696 126.121 26.5108C126.289 27.1082 126.538 27.6641 126.83 28.2618C126.996 28.689 127.287 29.1162 127.621 29.4575L128.12 29.8414C128.412 30.013 128.663 30.2265 128.995 30.3537C129.412 30.5253 129.786 30.6528 130.161 30.7812C130.452 30.8666 130.703 30.995 130.952 31.0376C131.16 31.123 131.369 31.123 131.577 31.0376C131.785 30.9517 131.951 30.8666 132.16 30.8242C132.368 30.7812 132.534 30.6528 132.742 30.6528C133.076 30.6958 133.451 30.6107 133.742 30.5253L134.742 30.2686C134.867 30.2265 135.033 30.1402 135.116 30.0551C135.574 29.7993 135.867 29.6709 136.324 29.1162C136.657 28.7311 136.782 28.3904 137.073 27.9629L137.948 26.6822C138.156 26.34 138.364 25.9982 138.615 25.6573L138.739 25.3154C138.864 25.1014 138.989 24.8025 139.072 24.5467C139.115 24.3756 139.155 24.2049 139.239 24.0344C139.36 23.827 139.482 23.5408 139.603 23.3288C139.617 23.5472 139.646 23.7612 139.738 23.949C139.821 24.4607 140.07 24.9312 140.07 25.3584C140.07 25.6994 140.153 25.8707 140.278 26.1696C140.529 26.5538 140.695 27.0231 140.903 27.4506C141.029 27.8346 141.278 28.0913 141.486 28.4323C141.695 28.6457 141.82 28.8162 142.027 29.0732C142.235 29.3291 142.527 29.5855 142.86 29.8414C143.027 30.0551 143.277 30.1835 143.485 30.2686C143.777 30.4824 144.068 30.5677 144.318 30.6107C144.609 30.6958 144.943 30.7379 145.192 30.7379C145.442 30.7379 145.692 30.6958 145.9 30.7379C146.233 30.6107 146.65 30.6107 146.983 30.4391C147.482 30.2686 147.733 30.013 147.816 29.9698C148.107 29.7993 148.441 29.6279 148.648 29.2867C148.648 29.2437 148.69 29.2016 148.732 29.1586C148.857 28.9878 148.982 28.8598 149.107 28.7311C149.273 28.5609 149.356 28.4323 149.398 28.305C149.648 27.8346 149.773 27.3652 150.022 26.981C150.19 26.4687 150.481 25.9982 150.73 25.4856C150.779 25.3737 150.83 25.254 150.88 25.1366L150.896 25.23C150.937 25.4435 150.979 25.614 151.062 25.7848C151.145 26.0412 151.27 26.34 151.437 26.5959L151.812 27.2369C151.978 27.4933 152.187 27.7062 152.353 27.9629C152.478 28.0913 152.602 28.2188 152.77 28.3469C153.186 28.689 153.602 28.9878 154.061 29.2867C154.227 29.415 154.393 29.5004 154.56 29.5425C154.727 29.6279 154.893 29.6709 155.06 29.756L155.56 29.8844C155.934 29.8844 156.309 29.9268 156.643 29.9698C156.892 29.9698 157.142 29.9698 157.35 29.8844C157.6 29.8844 157.849 29.8414 158.058 29.7993C158.474 29.6709 158.891 29.5855 159.308 29.4575C159.474 29.415 159.64 29.3291 159.807 29.2437C159.932 29.1586 160.099 29.03 160.182 28.9027C160.599 28.3904 161.014 27.8346 161.265 27.1936C161.348 27.0231 161.431 26.8529 161.556 26.7243L161.931 26.3825C162.097 26.255 162.305 26.255 162.431 26.3825C162.513 26.4687 162.556 26.5538 162.597 26.6822L162.971 27.5357C163.013 27.6641 163.055 27.7492 163.097 27.8775L163.222 28.2188C163.555 28.7311 163.888 29.2437 164.346 29.6279C164.388 29.6709 164.43 29.7142 164.513 29.756C164.679 29.8844 164.887 30.013 165.095 30.1402L165.929 30.5253C165.97 30.5677 166.053 30.5677 166.095 30.5677C166.345 30.6528 166.553 30.6958 166.803 30.6958C167.095 30.6528 167.386 30.6528 167.719 30.6528C168.177 30.6107 168.843 30.6107 169.301 30.3973C169.592 30.2686 169.843 30.1402 170.134 30.0551C170.175 30.0551 170.218 30.013 170.301 29.9698C170.592 29.7993 170.926 29.6279 171.134 29.2867C171.134 29.2437 171.175 29.2016 171.217 29.1586C171.342 28.9878 171.467 28.8598 171.592 28.7311C171.758 28.5609 171.842 28.4323 171.883 28.305C172.133 27.8346 172.258 27.3652 172.508 26.981C172.674 26.4687 172.966 25.9982 173.216 25.4856C173.382 25.1014 173.549 24.6745 173.757 24.2902C173.799 24.2049 173.84 24.0768 173.84 23.949C173.965 23.6504 174.007 23.3504 174.048 23.0516C174.09 22.8811 174.09 22.7106 174.174 22.4969C174.229 22.3826 174.276 22.2508 174.319 22.1178C174.328 22.2725 174.338 22.4274 174.338 22.5823C174.338 23.0092 174.421 23.4367 174.462 23.9063C174.462 23.9914 174.462 24.0768 174.504 24.1619C174.587 24.4186 174.629 24.6321 174.67 24.9312C174.67 24.9733 174.67 25.1014 174.712 25.23C174.712 25.3154 174.712 25.4002 174.753 25.4856C174.879 25.7848 174.921 26.0412 174.962 26.34C175.004 26.3825 175.004 26.4254 175.004 26.5108C175.129 26.7675 175.17 27.1515 175.337 27.4074C175.378 27.5787 175.462 27.7062 175.504 27.8775C175.587 28.005 175.587 28.0913 175.712 28.2618C175.795 28.5609 175.961 28.7311 176.087 29.03C176.17 29.1162 176.212 29.2016 176.253 29.2867C176.42 29.415 176.461 29.5855 176.627 29.7142C176.712 29.8844 176.878 30.0551 177.044 30.1402C177.211 30.3537 177.461 30.5677 177.71 30.7379C177.835 30.8666 178.043 30.995 178.294 31.08C178.377 31.1654 178.543 31.2505 178.669 31.2935L178.96 31.4219C179.209 31.4643 179.501 31.5494 179.709 31.6356C179.792 31.6777 179.835 31.6777 179.917 31.6777C180.376 31.721 180.751 31.7631 181.166 31.7631C181.625 31.7631 182.042 31.721 182.457 31.7631L182.749 31.7631C182.999 31.721 183.208 31.6777 183.457 31.6777C183.624 31.6356 183.748 31.5924 183.874 31.5073C184.04 31.4219 184.248 31.4219 184.373 31.2935C184.582 31.2505 184.79 31.1654 184.998 30.995C185.29 30.8666 185.664 30.6107 186.039 30.3119C186.289 30.0981 186.496 29.8414 186.539 29.7993C186.664 29.6709 186.83 29.5425 186.955 29.4575C187.122 29.3291 187.205 29.2437 187.288 29.1162C187.58 28.689 187.747 28.305 188.038 27.9629C188.287 27.4933 188.621 27.1082 188.912 26.6822C189.12 26.34 189.329 25.9982 189.578 25.6573L189.704 25.3154C189.829 25.1014 189.953 24.8025 190.037 24.5467C190.078 24.4607 190.161 24.4186 190.203 24.2902C190.453 23.9063 190.62 23.3934 190.703 23.0516C190.786 22.5393 190.62 22.3688 190.495 22.198L190.495 22.198ZM140.986 6.78195L141.195 7.12407C141.32 7.33782 141.32 7.5083 141.444 7.72176C141.528 7.93551 141.695 8.10599 141.82 8.31945C141.944 8.36243 142.027 8.44782 142.235 8.44782C142.402 8.57532 142.611 8.6183 142.86 8.6183C143.235 8.57532 143.568 8.5332 143.943 8.36243C144.026 8.31945 144.193 8.27647 144.359 8.23407C144.776 7.93551 144.776 7.93551 145.483 7.5083C145.483 7.5083 145.609 7.5083 145.692 7.42291C145.776 7.37964 145.9 7.29426 145.983 7.12407C146.025 6.9957 146.067 6.86734 146.025 6.69686L146.025 6.05589L146.025 5.5433C146.067 5.24445 145.9 5.03099 145.692 4.81811L144.776 4.13416C144.609 3.96368 144.401 3.87859 144.193 3.83532C143.86 3.66484 143.694 3.66484 143.36 3.74993C143.069 3.87859 142.777 3.87859 142.527 3.96368C142.361 3.96368 142.235 3.96368 142.111 4.09205C141.861 4.17743 141.611 4.34791 141.32 4.51839C141.112 4.68974 140.986 4.68974 140.903 4.98888C140.903 5.07397 140.82 5.11724 140.82 5.20234C140.778 5.50147 140.737 5.84214 140.778 6.14099C140.778 6.35474 140.903 6.56849 140.986 6.78195" id="Fill-13" fill="#CD243E" stroke="none" />
</svg>